<svg version="1.1" id="Layer_1" xmlns="http://www.w3.org/2000/svg" xmlns:xlink="http://www.w3.org/1999/xlink" x="0px" y="0px"
	 width="100%" viewBox="0 0 3508 2959" enable-background="new 0 0 3508 2959" xml:space="preserve">
<path fill="#FFFFFF" opacity="1.000000" stroke="none" 
	d="
M2418.000000,2962.000000 
	C1612.000244,2962.000000 807.000488,2962.000000 2.000540,2962.000000 
	C2.000360,1975.333862 2.000360,988.667725 2.000180,2.001202 
	C1171.332397,2.000801 2340.664795,2.000801 3509.998047,2.000401 
	C3509.998535,988.665527 3509.998535,1975.331055 3509.999268,2961.998291 
	C3146.333252,2962.000000 2782.666748,2962.000000 2418.000000,2962.000000 
M1409.000000,433.516785 
	C1315.784180,433.516785 1222.568359,433.516785 1129.031982,433.516785 
	C1129.031982,499.040070 1129.031982,563.459412 1129.031982,628.554565 
	C1284.162476,628.554565 1438.569580,628.554565 1594.209351,628.554565 
	C1584.192749,647.760315 1574.718994,665.925171 1565.176758,684.221313 
	C1561.213623,684.221313 1557.898071,684.221313 1554.582520,684.221313 
	C1523.920288,684.221313 1493.257812,684.136414 1462.595825,684.236755 
	C1354.313354,684.591248 1246.031128,685.004639 1137.748901,685.428467 
	C1134.870605,685.439758 1131.993896,685.826477 1129.276001,686.026367 
	C1127.316162,700.818542 1127.935913,888.059692 1130.010010,895.527527 
	C1254.923096,896.646240 1379.995972,892.889343 1506.306641,894.925293 
	C1506.306641,1293.299438 1506.306641,1690.396362 1506.306641,2087.583008 
	C1572.745239,2087.583008 1637.922119,2087.583008 1704.049316,2087.583008 
	C1704.049316,2082.830322 1704.049316,2078.575439 1704.049316,2074.320557 
	C1704.049316,1683.044067 1704.060303,1291.767456 1704.013184,900.490967 
	C1704.010986,882.819458 1704.938843,865.283508 1707.982422,847.833374 
	C1717.839722,791.317627 1739.316895,740.863098 1781.962158,700.701111 
	C1814.796997,669.778259 1852.069336,646.862915 1895.454956,634.223450 
	C1935.666138,622.508850 1976.928467,617.522400 2018.630005,617.411804 
	C2155.609375,617.048340 2292.589844,617.275635 2429.570068,617.275940 
	C2433.489014,617.275940 2437.407959,617.275940 2441.138672,617.275940 
	C2443.167236,605.106079 2442.685303,440.938324 2440.651855,433.516571 
	C2097.521484,433.516571 1754.260742,433.516571 1409.000000,433.516785 
M2195.000000,1019.939453 
	C2160.006104,1019.939453 2125.011963,1019.977112 2090.018066,1019.928833 
	C2054.856201,1019.880310 2019.688232,1020.147034 1983.129883,1019.742004 
	C1982.862793,991.427063 1982.096069,964.488037 1982.580566,937.571594 
	C1982.807861,924.943237 1989.515991,914.924011 2000.544189,908.125000 
	C2012.428711,900.797974 2025.457764,896.783630 2039.224121,896.159668 
	C2062.819092,895.090271 2086.447754,894.612000 2110.067871,894.274475 
	C2159.347656,893.570312 2208.630127,893.029053 2257.913086,892.593994 
	C2297.227295,892.246887 2336.543701,892.194153 2375.858887,891.936035 
	C2395.509277,891.807068 2415.159180,891.533630 2434.808350,891.260010 
	C2437.062500,891.228638 2439.310547,890.774170 2441.733398,890.496216 
	C2441.733398,826.203003 2441.733398,762.377075 2441.733398,698.239258 
	C2439.940430,697.995728 2438.677979,697.694702 2437.410645,697.671387 
	C2413.454102,697.228638 2389.498291,696.594788 2365.539551,696.449158 
	C2317.220703,696.155396 2268.898926,695.872192 2220.580322,696.049072 
	C2120.640869,696.414856 2020.698975,696.734253 1920.766235,697.816284 
	C1885.010132,698.203369 1854.811646,712.398804 1831.940063,740.458252 
	C1804.712280,773.861877 1792.792480,813.085144 1792.536377,855.355530 
	C1791.841675,969.999146 1792.297241,1084.649658 1792.296875,1199.297485 
	C1792.296875,1202.538208 1792.296875,1205.779053 1792.296875,1209.399902 
	C2009.417847,1209.399902 2225.499023,1209.399902 2441.800537,1209.399902 
	C2442.007812,1207.549194 2442.276611,1206.267578 2442.277344,1204.985962 
	C2442.302734,1151.661499 2442.237061,1098.336670 2442.385010,1045.012695 
	C2442.405762,1037.531250 2439.456543,1031.885254 2433.261719,1028.456421 
	C2428.108154,1025.604004 2422.416992,1022.666931 2416.720703,1022.062866 
	C2403.212891,1020.630676 2389.562500,1020.071106 2375.966797,1020.026184 
	C2316.311768,1019.829041 2256.655762,1019.940125 2195.000000,1019.939453 
M1893.011719,2087.941650 
	C1912.324463,2087.702637 1931.640381,2087.604492 1950.948608,2087.164795 
	C1960.458496,2086.947998 1969.954102,2086.098877 1980.592651,2085.468750 
	C1980.592651,2061.422607 1980.544067,2038.151001 1980.600586,2014.879639 
	C1980.976929,1859.948853 1981.375732,1705.018188 1981.766846,1550.087402 
	C1981.771851,1548.087891 1981.570068,1546.062866 1981.817261,1544.093994 
	C1982.353271,1539.824707 1982.808716,1535.507080 1983.847168,1531.346436 
	C1986.927490,1519.005005 1994.613037,1510.853760 2007.028687,1507.747803 
	C2011.473389,1506.635742 2016.182617,1506.116699 2020.771484,1506.113892 
	C2157.074219,1506.030518 2293.376953,1506.046265 2429.679688,1506.046387 
	C2433.593506,1506.046387 2437.507324,1506.046387 2442.278564,1506.046387 
	C2442.278564,1502.471680 2442.278320,1499.880371 2442.278320,1497.289062 
	C2442.279541,1442.634644 2442.311768,1387.980225 2442.264160,1333.325806 
	C2442.248535,1315.267334 2433.001953,1304.743896 2415.137695,1302.353516 
	C2411.853516,1301.913940 2408.486084,1302.014160 2405.156982,1302.010742 
	C2380.829102,1301.985474 2356.501221,1301.997314 2332.173340,1301.997314 
	C2156.212891,1301.997314 1980.252319,1301.995361 1804.291870,1302.010498 
	C1800.445557,1302.010864 1796.599243,1302.210449 1792.814697,1302.315308 
	C1792.814697,1564.678955 1792.814697,1825.821289 1792.814697,2087.956299 
	C1825.878052,2087.956299 1858.443359,2087.956299 1893.011719,2087.941650 
M2608.143311,2285.000000 
	C2608.143311,2318.870850 2608.143311,2352.741455 2608.143311,2387.406494 
	C2617.657959,2388.643555 2626.137451,2390.051514 2634.674805,2390.797363 
	C2657.631836,2392.802490 2680.590576,2393.240234 2703.196533,2387.772461 
	C2739.588379,2378.969482 2763.957031,2357.432861 2773.252930,2320.412598 
	C2777.030273,2305.370361 2777.056885,2290.000732 2775.620117,2274.730469 
	C2771.812744,2234.260742 2748.136963,2206.494385 2708.990723,2195.566406 
	C2684.175537,2188.638916 2658.951172,2189.181152 2633.669678,2191.260010 
	C2625.209717,2191.955322 2616.468018,2191.837402 2608.143555,2195.930664 
	C2608.143555,2225.114746 2608.143555,2254.057373 2608.143311,2285.000000 
M864.180481,2342.908691 
	C873.868408,2358.419678 883.556274,2373.930420 893.498352,2389.848389 
	C905.957031,2389.848389 918.871948,2389.848389 933.121643,2389.848389 
	C919.146667,2360.411865 901.710327,2334.252197 882.081482,2308.820801 
	C885.788940,2306.949951 889.031128,2305.391357 892.202271,2303.699463 
	C903.095642,2297.887451 911.622253,2289.820801 916.618530,2278.290527 
	C930.537354,2246.168457 916.335876,2211.168945 883.973083,2198.314941 
	C879.356873,2196.481445 874.518066,2195.071533 869.664917,2193.994629 
	C842.915344,2188.060547 816.058350,2189.653320 789.208923,2193.249512 
	C785.674194,2193.722900 782.205505,2194.689941 778.770874,2195.414795 
	C778.770874,2260.588623 778.770874,2325.019043 778.770874,2390.101318 
	C790.860474,2390.209717 802.299316,2390.369629 814.629517,2389.985840 
	C814.629517,2364.523682 814.629517,2340.360840 814.629517,2315.514404 
	C822.849487,2315.514404 830.161499,2315.830322 837.429810,2315.403076 
	C842.279419,2315.118164 845.572937,2316.509033 848.304077,2320.573486 
	C853.129517,2327.754639 858.355530,2334.666504 864.180481,2342.908691 
M2250.960938,2358.761475 
	C2226.767822,2358.761475 2202.574463,2358.761475 2177.977539,2358.761475 
	C2177.977539,2339.247314 2177.977539,2321.112793 2177.977539,2301.936279 
	C2204.968018,2301.936279 2231.429932,2301.936279 2257.890381,2301.936279 
	C2257.890381,2291.417725 2257.890381,2281.952393 2257.890381,2271.432861 
	C2230.763916,2271.432861 2204.303223,2271.432861 2177.424561,2271.432861 
	C2177.424561,2262.714111 2177.397461,2255.061768 2177.432373,2247.409668 
	C2177.468506,2239.563965 2177.564941,2231.718262 2177.642822,2222.997070 
	C2208.558594,2222.997070 2238.072021,2222.997070 2268.037842,2222.997070 
	C2268.037842,2212.251709 2268.037842,2202.425781 2268.037842,2192.535645 
	C2225.669189,2192.535645 2183.835449,2192.535645 2141.852051,2192.535645 
	C2141.852051,2258.550049 2141.852051,2324.006348 2141.852051,2389.303711 
	C2186.656494,2389.303711 2230.788574,2389.303711 2275.111816,2389.303711 
	C2275.111816,2379.050781 2275.111816,2369.527344 2275.111816,2358.762207 
	C2267.425049,2358.762207 2260.182129,2358.762207 2250.960938,2358.761475 
M1719.473022,2386.103271 
	C1720.760742,2387.375488 1722.021484,2389.718994 1723.340576,2389.752197 
	C1734.879395,2390.042480 1746.428589,2389.919922 1759.529907,2389.919922 
	C1735.461182,2321.916992 1710.602783,2255.776611 1680.515869,2192.291504 
	C1668.273926,2192.291504 1657.326416,2192.291504 1646.574463,2192.291504 
	C1630.843750,2217.993652 1569.486450,2374.063232 1568.971313,2389.372070 
	C1580.825928,2389.372070 1592.676025,2389.372070 1604.581787,2389.372070 
	C1610.079590,2373.838623 1615.382446,2358.855957 1620.694702,2343.846680 
	C1648.876831,2343.846680 1676.386108,2343.846680 1704.269531,2343.846680 
	C1709.215698,2357.693359 1714.019287,2371.140625 1719.473022,2386.103271 
M982.055176,2225.003418 
	C981.893921,2214.177002 982.397522,2203.316162 981.756775,2192.717773 
	C969.173279,2192.717773 957.977966,2192.717773 946.392395,2192.717773 
	C946.201721,2194.867188 945.935974,2196.469238 945.935669,2198.071289 
	C945.927246,2239.067627 945.714478,2280.066650 946.150574,2321.058594 
	C946.241272,2329.590820 947.857117,2338.366455 950.321655,2346.563232 
	C956.683105,2367.721436 970.700012,2382.135498 991.603455,2389.506348 
	C1006.698608,2394.829102 1022.413391,2395.338867 1038.041870,2393.444336 
	C1064.290771,2390.262451 1084.624390,2378.015625 1095.393188,2352.794189 
	C1100.294800,2341.314209 1102.179443,2329.202148 1102.151978,2316.712402 
	C1102.067139,2278.049316 1102.135864,2239.385498 1102.112549,2200.722168 
	C1102.110962,2198.155518 1101.837280,2195.588867 1101.678467,2192.817139 
	C1089.546875,2192.817139 1078.109131,2192.817139 1065.991455,2192.817139 
	C1065.991455,2197.117676 1065.991943,2200.734619 1065.991333,2204.351807 
	C1065.985474,2239.682129 1066.101440,2275.013184 1065.872803,2310.342041 
	C1065.825806,2317.619873 1065.236694,2325.061768 1063.600342,2332.127441 
	C1059.985107,2347.737549 1050.510986,2358.339600 1034.260986,2361.192383 
	C1009.068237,2365.614746 987.986816,2355.684326 983.614624,2327.868652 
	C982.688293,2321.975098 982.161316,2315.958496 982.127991,2309.994873 
	C981.973206,2282.331543 982.056946,2254.666748 982.055176,2225.003418 
M1759.512573,2268.570312 
	C1756.809448,2286.533691 1757.049561,2304.471191 1760.992188,2322.195312 
	C1770.072266,2363.015869 1794.896118,2386.451660 1836.298828,2392.808350 
	C1856.290283,2395.877686 1876.152710,2393.935547 1895.588013,2388.258789 
	C1902.523071,2386.233154 1909.693848,2384.634277 1915.628174,2379.355957 
	C1912.412842,2369.876709 1910.019897,2360.371338 1905.641846,2351.085938 
	C1888.068237,2359.576416 1870.588257,2362.698242 1852.288696,2361.970459 
	C1827.522949,2360.985840 1808.752686,2347.852783 1800.948120,2324.554443 
	C1793.665039,2302.812744 1793.258423,2280.625732 1800.340088,2258.744873 
	C1808.334473,2234.043945 1827.562134,2220.148926 1853.412720,2219.288574 
	C1868.293213,2218.792969 1882.567627,2221.290771 1896.197632,2227.373047 
	C1898.475220,2228.389404 1900.896240,2229.083740 1903.700317,2230.087646 
	C1907.229004,2220.339355 1910.470703,2211.384277 1913.879028,2201.968750 
	C1909.953491,2199.874756 1906.887207,2197.845703 1903.542480,2196.517578 
	C1878.065552,2186.400391 1851.874390,2183.370117 1825.359985,2191.216309 
	C1787.635376,2202.379150 1767.257568,2229.158691 1759.512573,2268.570312 
M1575.689697,2300.346191 
	C1575.689697,2291.473877 1575.689697,2282.601562 1575.689697,2272.630127 
	C1548.724487,2272.630127 1522.930176,2272.630127 1496.804443,2272.630127 
	C1496.804443,2255.697021 1496.804443,2239.912598 1496.804443,2223.043945 
	C1526.605469,2223.043945 1555.760254,2223.043945 1585.032959,2223.043945 
	C1585.032959,2212.154541 1585.032959,2202.370850 1585.032959,2192.594238 
	C1543.216675,2192.594238 1502.093872,2192.594238 1460.834961,2192.594238 
	C1460.834961,2258.601318 1460.834961,2323.984375 1460.834961,2389.997314 
	C1472.969360,2389.872314 1484.417969,2390.458252 1496.584717,2389.554443 
	C1496.584717,2360.536133 1496.584717,2332.690186 1496.584717,2304.033203 
	C1500.635010,2304.033203 1503.897095,2304.033203 1507.159058,2304.033203 
	C1526.805908,2304.033203 1546.453247,2304.113037 1566.098755,2303.951172 
	C1569.214600,2303.925537 1572.321289,2302.810791 1575.689697,2300.346191 
M1382.727051,2192.129395 
	C1374.437134,2192.129395 1366.147095,2192.129395 1357.567627,2192.129395 
	C1343.464233,2222.197266 1327.769409,2250.835449 1309.087036,2280.619385 
	C1292.497314,2249.855225 1277.062988,2221.233398 1261.672729,2192.693359 
	C1248.576172,2192.693359 1235.438843,2192.693359 1221.167603,2192.693359 
	C1222.950073,2196.494141 1224.100098,2199.532227 1225.713989,2202.299561 
	C1245.839478,2236.808838 1265.933350,2271.337646 1286.316162,2305.694824 
	C1289.323975,2310.764893 1291.055054,2315.610107 1290.972290,2321.560059 
	C1290.703247,2340.880371 1290.871216,2360.207275 1290.870972,2379.531494 
	C1290.870972,2382.786377 1290.870972,2386.041016 1290.870972,2389.571777 
	C1303.393066,2389.571777 1314.839722,2389.571777 1327.136841,2389.571777 
	C1327.136841,2385.674316 1327.136963,2382.400146 1327.136963,2379.125977 
	C1327.136963,2360.134766 1327.336792,2341.140625 1327.028198,2322.154297 
	C1326.920654,2315.529785 1328.759033,2310.078857 1332.135742,2304.409424 
	C1352.235962,2270.659424 1371.984253,2236.699463 1391.790894,2202.775146 
	C1393.554321,2199.754639 1394.890259,2196.484619 1397.008789,2192.129395 
	C1391.789429,2192.129395 1388.197388,2192.129395 1382.727051,2192.129395 
M2497.150391,2288.999756 
	C2497.150391,2322.500000 2497.150391,2356.000000 2497.150391,2389.389160 
	C2509.984131,2389.389160 2521.475586,2389.389160 2533.704102,2389.389160 
	C2533.704102,2377.829102 2533.704346,2366.899902 2533.704346,2355.970947 
	C2533.704346,2344.981689 2533.704346,2333.992188 2533.704346,2323.002930 
	C2533.704346,2311.680420 2533.704346,2300.358154 2533.704346,2289.035645 
	C2533.704346,2278.046387 2533.632324,2267.056396 2533.724365,2256.067871 
	C2533.814697,2245.258057 2533.308838,2234.408447 2534.088135,2223.534180 
	C2554.853516,2222.673584 2574.355957,2223.922119 2593.816895,2222.792725 
	C2593.816895,2212.010010 2593.816895,2202.476562 2593.816895,2192.507324 
	C2541.257080,2192.507324 2489.173340,2192.507324 2436.794189,2192.507324 
	C2436.794189,2202.799805 2436.794189,2212.552979 2436.794189,2222.979004 
	C2457.131592,2223.772705 2476.942871,2222.583008 2497.151367,2223.676025 
	C2497.151367,2245.739502 2497.151367,2266.369629 2497.150391,2288.999756 
M650.928894,2223.541260 
	C656.447327,2223.541260 661.965759,2223.541260 668.399536,2223.541260 
	C668.399536,2279.830566 668.399536,2334.647949 668.399536,2389.522461 
	C680.847351,2389.522461 692.311768,2389.522461 704.692139,2389.522461 
	C704.692139,2334.008789 704.692139,2279.170898 704.692139,2223.168701 
	C725.416687,2223.168701 745.232239,2223.168701 764.842224,2223.168701 
	C764.842224,2212.169922 764.842224,2202.368652 764.842224,2192.495850 
	C712.118347,2192.495850 660.195557,2192.495850 607.417419,2192.495850 
	C607.275391,2202.951172 606.852112,2213.021729 607.696533,2223.541016 
	C622.319519,2223.541016 635.630981,2223.541016 650.928894,2223.541260 
M2383.469482,2245.000000 
	C2383.469482,2227.485596 2383.469482,2209.971191 2383.469482,2192.293213 
	C2370.780273,2192.293213 2359.512207,2192.293213 2348.300537,2192.293213 
	C2346.419434,2203.206543 2346.842529,2382.452393 2348.665771,2389.374512 
	C2389.786377,2389.374512 2430.858643,2389.374512 2471.712646,2389.374512 
	C2471.712646,2378.898926 2471.712646,2369.099121 2471.712646,2358.450439 
	C2442.133057,2358.450439 2413.313232,2358.450439 2383.469238,2358.450439 
	C2383.469238,2320.712646 2383.469238,2283.856445 2383.469482,2245.000000 
M2003.180908,2354.996582 
	C2003.180908,2366.514893 2003.180908,2378.032959 2003.180908,2389.331055 
	C2045.761353,2389.331055 2086.882568,2389.331055 2127.720215,2389.331055 
	C2127.720215,2378.805176 2127.720215,2368.999756 2127.720215,2358.309814 
	C2098.072510,2358.309814 2069.228271,2358.309814 2039.362061,2358.309814 
	C2039.362061,2302.557373 2039.362061,2247.729248 2039.362061,2192.564453 
	C2026.860596,2192.564453 2015.415405,2192.564453 2003.182251,2192.564453 
	C2003.182251,2246.432373 2003.182251,2299.715332 2003.180908,2354.996582 
M1238.945557,2390.198975 
	C1245.521484,2390.198975 1252.097412,2390.198975 1258.910156,2390.198975 
	C1258.910156,2379.470459 1258.910156,2369.754395 1258.910156,2359.425781 
	C1248.503906,2359.425781 1238.875977,2359.425781 1229.248047,2359.425781 
	C1219.261841,2359.425781 1209.274902,2359.493408 1199.289429,2359.406250 
	C1189.765747,2359.323242 1180.201660,2359.820068 1171.145142,2359.070557 
	C1170.689087,2357.503174 1170.516113,2357.185791 1170.515381,2356.867676 
	C1170.385986,2303.618408 1170.270630,2250.369141 1170.138794,2197.119873 
	C1170.136353,2196.129639 1169.970825,2195.135742 1169.821289,2194.152588 
	C1169.777100,2193.861572 1169.559570,2193.575439 1169.362061,2193.335693 
	C1169.152832,2193.082031 1168.873047,2192.886475 1168.650024,2192.688477 
	C1157.442505,2192.688477 1146.269043,2192.688477 1134.723389,2192.688477 
	C1134.723389,2258.614502 1134.723389,2323.980957 1134.723389,2390.198975 
	C1169.191528,2390.198975 1203.074829,2390.198975 1238.945557,2390.198975 
M1970.137451,2219.016357 
	C1970.137451,2210.186768 1970.137451,2201.357178 1970.137451,2192.002197 
	C1958.729248,2192.002197 1948.781250,2191.980957 1938.833618,2192.028564 
	C1937.580566,2192.034424 1936.329468,2192.400635 1934.714966,2192.657715 
	C1934.714966,2258.391357 1934.714966,2323.748535 1934.714966,2389.326904 
	C1946.711914,2389.326904 1958.132568,2389.326904 1970.137451,2389.326904 
	C1970.137451,2332.755859 1970.137451,2276.882812 1970.137451,2219.016357 
M2289.835449,2507.935303 
	C2289.352051,2504.679932 2288.868408,2501.424561 2288.387451,2498.186523 
	C2292.303467,2493.951660 2297.281006,2493.591309 2302.269531,2493.503174 
	C2311.533447,2493.339844 2315.219971,2496.003662 2316.702637,2505.057617 
	C2317.663086,2510.923340 2317.631836,2516.977539 2317.731934,2522.952393 
	C2317.886475,2532.165283 2317.772705,2541.383057 2317.772705,2550.719482 
	C2322.398193,2550.719482 2325.832275,2550.719482 2329.927734,2550.719482 
	C2329.927734,2538.412109 2329.949951,2526.808105 2329.913330,2515.204102 
	C2329.902832,2511.878418 2329.958008,2508.525879 2329.580811,2505.231934 
	C2327.522217,2487.259521 2315.894287,2478.824219 2298.196533,2482.756592 
	C2293.064941,2483.896729 2288.184570,2486.168213 2282.884521,2488.027832 
	C2268.668213,2477.886719 2253.545898,2482.496582 2238.646484,2485.483398 
	C2238.646484,2507.915283 2238.646484,2529.378418 2238.646484,2550.913574 
	C2242.574951,2550.913574 2245.768555,2550.913574 2250.008301,2550.913574 
	C2250.008301,2531.963867 2250.008301,2513.509277 2250.008301,2494.587646 
	C2253.204590,2494.195312 2255.451660,2493.812256 2257.714111,2493.659180 
	C2272.517090,2492.656982 2276.945557,2496.448730 2277.616699,2511.405029 
	C2278.019531,2520.375977 2277.785156,2529.375488 2277.823242,2538.362305 
	C2277.841064,2542.541260 2277.826416,2546.720215 2277.826416,2550.907959 
	C2282.524170,2550.907959 2285.721191,2550.907959 2289.918457,2550.907959 
	C2289.918457,2536.851074 2289.918457,2523.298584 2289.835449,2507.935303 
M1925.025391,2553.377197 
	C1931.460938,2552.416260 1938.268188,2552.928223 1944.387329,2548.750732 
	C1943.819824,2545.710693 1943.293213,2542.889648 1942.679932,2539.604248 
	C1938.859253,2540.403076 1935.690308,2541.342285 1932.459595,2541.667236 
	C1928.838013,2542.031494 1925.134766,2542.142334 1921.512329,2541.833252 
	C1909.901489,2540.841553 1904.134644,2534.198730 1904.210449,2521.153320 
	C1918.967529,2521.153320 1933.747681,2521.153320 1949.455811,2521.153320 
	C1949.016357,2515.416260 1948.912598,2510.819336 1948.269165,2506.299316 
	C1946.643921,2494.880859 1941.341309,2486.247070 1929.429810,2483.211670 
	C1917.450195,2480.158447 1906.924072,2482.930908 1898.614502,2492.151123 
	C1887.657715,2504.308594 1886.979614,2528.607422 1896.937744,2541.513184 
	C1901.386108,2547.278320 1907.299316,2550.766357 1914.414185,2552.144287 
	C1917.345215,2552.711914 1920.335938,2552.970703 1925.025391,2553.377197 
M1453.412598,2558.348145 
	C1464.583496,2534.580811 1472.241089,2509.678467 1478.700439,2483.562500 
	C1473.891846,2483.562500 1470.345581,2483.562500 1466.384766,2483.562500 
	C1464.102051,2492.503662 1462.076904,2501.221680 1459.624512,2509.817871 
	C1457.239014,2518.179688 1454.415894,2526.416260 1451.133667,2536.760498 
	C1441.154053,2518.499512 1437.122681,2500.672607 1431.382080,2483.876953 
	C1427.043457,2483.876953 1423.287720,2483.876953 1418.854492,2483.876953 
	C1419.739136,2487.248291 1420.155640,2489.882568 1421.110229,2492.304932 
	C1428.046631,2509.907227 1434.907471,2527.543457 1442.181152,2545.007080 
	C1445.724609,2553.514893 1442.529419,2561.777832 1433.484375,2563.989746 
	C1429.752808,2564.902100 1425.624268,2564.168701 1421.677368,2564.240967 
	C1420.728271,2564.258301 1419.783447,2564.503418 1418.347900,2564.716553 
	C1418.065308,2567.609375 1417.786499,2570.463135 1417.517700,2573.214600 
	C1434.834961,2577.522705 1443.062134,2574.226318 1453.412598,2558.348145 
M2139.472168,2492.529053 
	C2130.937012,2502.895020 2129.913818,2514.973145 2132.156738,2527.465820 
	C2134.823975,2542.323242 2146.262939,2552.184814 2161.125732,2553.236572 
	C2175.553223,2554.257568 2188.177002,2545.511475 2192.512695,2530.727051 
	C2193.977539,2525.731689 2194.456299,2520.242432 2194.291260,2515.013428 
	C2193.861572,2501.409668 2188.450439,2490.213867 2175.383057,2484.710205 
	C2162.581543,2479.318604 2150.633057,2481.659912 2139.472168,2492.529053 
M1589.171143,2531.058350 
	C1590.799561,2544.902344 1596.337769,2550.713623 1609.887207,2551.872559 
	C1620.451538,2552.776123 1630.940552,2551.871582 1641.740112,2549.125000 
	C1641.740112,2533.727051 1642.265137,2518.783203 1641.581909,2503.895020 
	C1640.985229,2490.891357 1633.769409,2483.869141 1620.937622,2482.370361 
	C1612.663940,2481.404053 1604.465210,2482.020264 1595.944702,2485.662842 
	C1596.684570,2488.596436 1597.359253,2491.271484 1598.004272,2493.828613 
	C1604.090454,2493.226807 1609.348755,2492.235596 1614.597534,2492.284424 
	C1625.892090,2492.389648 1630.417725,2498.504395 1628.810181,2509.944336 
	C1620.845947,2510.550293 1612.913208,2510.484619 1605.257324,2511.907959 
	C1595.913208,2513.645020 1589.834717,2519.357666 1589.171143,2531.058350 
M1264.067017,2491.647949 
	C1264.068237,2499.969238 1263.855103,2508.297607 1264.142944,2516.609131 
	C1264.348755,2522.554199 1264.646973,2528.604492 1265.931763,2534.379395 
	C1268.207397,2544.606201 1275.337524,2550.388916 1285.491089,2551.679688 
	C1296.421387,2553.069336 1307.285156,2552.009277 1318.112793,2548.587646 
	C1318.112793,2526.810059 1318.112793,2505.336914 1318.112793,2483.762695 
	C1314.064819,2483.762695 1310.562378,2483.762695 1306.036377,2483.762695 
	C1306.036377,2502.798340 1306.036377,2521.240723 1306.036377,2539.171875 
	C1304.708862,2539.764160 1304.428101,2539.968994 1304.123657,2540.013916 
	C1282.145020,2543.268555 1276.309448,2538.283203 1276.192627,2516.067383 
	C1276.136841,2505.468994 1276.182983,2494.870117 1276.182983,2483.712891 
	C1271.992432,2483.712891 1268.506836,2483.712891 1264.470825,2483.712891 
	C1264.318237,2486.016846 1264.191772,2487.925537 1264.067017,2491.647949 
M1533.157715,2451.466553 
	C1523.131348,2454.196777 1518.644165,2461.405518 1517.427124,2471.136230 
	C1517.014771,2474.433105 1516.796997,2477.775635 1516.787842,2481.097900 
	C1516.730835,2501.761719 1516.735474,2522.425537 1516.787720,2543.089355 
	C1516.794312,2545.661865 1517.201416,2548.233398 1517.485229,2551.527344 
	C1521.557007,2551.323730 1524.997925,2551.151855 1529.294312,2550.937012 
	C1529.294312,2531.418701 1529.294312,2512.912842 1529.294312,2493.546631 
	C1538.046509,2493.546631 1545.912842,2493.546631 1554.227417,2493.546631 
	C1554.227417,2489.632080 1554.227417,2486.608887 1554.227417,2482.654297 
	C1545.600830,2482.654297 1537.757812,2482.654297 1530.071655,2482.654297 
	C1527.713379,2463.390869 1533.618408,2458.637939 1555.690186,2461.375977 
	C1556.333008,2458.615723 1556.985229,2455.815674 1557.712891,2452.691162 
	C1549.834717,2449.334717 1542.334839,2449.501221 1533.157715,2451.466553 
M1145.869629,2539.004639 
	C1141.281860,2539.632324 1136.681763,2540.841309 1132.109131,2540.745361 
	C1125.964844,2540.616455 1122.433838,2537.750244 1122.161499,2531.714355 
	C1121.598022,2519.226562 1121.991577,2506.695312 1121.991577,2493.199219 
	C1130.446167,2493.199219 1138.255737,2493.199219 1146.714233,2493.199219 
	C1146.503784,2489.341553 1146.350342,2486.526367 1146.142700,2482.720703 
	C1137.695312,2482.720703 1129.893066,2482.720703 1121.323242,2482.720703 
	C1121.323242,2475.484375 1121.323242,2469.265137 1121.323242,2461.979492 
	C1116.598877,2462.932373 1112.919556,2463.674561 1109.247314,2464.415283 
	C1109.247314,2486.184814 1108.917114,2506.825439 1109.342407,2527.450195 
	C1109.748169,2547.128418 1119.807129,2555.034180 1139.254517,2551.700195 
	C1142.432739,2551.155762 1145.483032,2549.865479 1149.211670,2548.731201 
	C1148.462891,2545.320312 1147.839111,2542.479004 1145.869629,2539.004639 
M2824.256104,2387.172363 
	C2825.729980,2384.974365 2827.569580,2382.936279 2828.612061,2380.549805 
	C2832.628662,2371.354492 2829.937256,2360.447754 2822.383301,2354.242188 
	C2814.579834,2347.831543 2802.622070,2347.229736 2794.370117,2352.832275 
	C2786.123779,2358.430908 2782.688232,2368.499512 2785.640381,2378.415039 
	C2788.484131,2387.964844 2797.060303,2394.641602 2807.554199,2393.745850 
	C2812.863281,2393.292969 2817.941650,2390.135742 2824.256104,2387.172363 
M2077.429932,2482.102051 
	C2061.953613,2483.437988 2051.820312,2491.832031 2048.567871,2506.704346 
	C2045.332642,2521.498535 2045.943970,2536.433838 2059.457275,2546.675293 
	C2071.358154,2555.694824 2084.583984,2554.559326 2098.451172,2549.650635 
	C2097.686279,2545.975830 2097.106689,2543.191162 2096.537842,2540.457275 
	C2070.580566,2543.941406 2060.884277,2538.588379 2059.960449,2520.642334 
	C2059.560059,2512.869385 2060.045166,2505.160400 2065.734863,2499.106934 
	C2074.065186,2490.244629 2084.701416,2494.170410 2095.245117,2494.942139 
	C2095.741943,2491.337646 2096.167725,2488.247314 2096.708252,2484.327148 
	C2090.242432,2483.486816 2084.707031,2482.767578 2077.429932,2482.102051 
M1683.943726,2508.944092 
	C1683.929810,2514.912109 1683.259644,2520.967773 1684.043457,2526.829102 
	C1685.505127,2537.760986 1691.254883,2546.063721 1701.727539,2550.383545 
	C1712.382568,2554.778564 1722.996460,2553.801270 1734.340332,2549.716309 
	C1733.672729,2546.266357 1733.088989,2543.249512 1732.498901,2540.200439 
	C1720.013062,2542.118408 1707.638428,2545.618408 1699.859375,2533.405762 
	C1693.537354,2523.480225 1693.770508,2512.106934 1699.712280,2502.032227 
	C1706.989868,2489.692871 1719.167847,2493.702637 1730.864380,2495.080078 
	C1731.551880,2491.784912 1732.192993,2488.712158 1732.809814,2485.755371 
	C1708.383057,2476.908936 1692.121704,2484.342773 1683.943726,2508.944092 
M1833.228027,2539.106445 
	C1837.093994,2549.533691 1840.669556,2551.790039 1853.307495,2551.386230 
	C1853.679199,2548.659668 1854.064453,2545.833740 1854.560303,2542.196289 
	C1845.116211,2541.392822 1844.621582,2534.791748 1844.637573,2527.738037 
	C1844.687988,2505.424805 1844.653320,2483.111328 1844.651733,2460.798096 
	C1844.651489,2457.556152 1844.651733,2454.314209 1844.651733,2449.916504 
	C1839.878784,2450.984131 1836.228882,2451.800537 1832.839722,2452.558594 
	C1832.839722,2481.559814 1832.839722,2509.510986 1833.228027,2539.106445 
M1364.423096,2471.147705 
	C1364.424194,2491.440674 1364.270142,2511.735352 1364.480469,2532.026123 
	C1364.622559,2545.750000 1369.649414,2551.030518 1382.641602,2551.947266 
	C1383.529663,2552.010010 1384.465454,2551.396484 1385.515137,2551.052734 
	C1385.833862,2548.373047 1386.143066,2545.773926 1386.434204,2543.326660 
	C1377.074585,2538.477783 1376.730469,2538.153564 1376.688721,2527.962646 
	C1376.594727,2505.008545 1376.679688,2482.053955 1376.625610,2459.099609 
	C1376.618896,2456.287109 1376.207764,2453.475830 1375.936157,2450.061523 
	C1371.584717,2451.077637 1368.165161,2451.875977 1364.423218,2452.749756 
	C1364.423218,2458.593750 1364.423218,2463.898682 1364.423096,2471.147705 
M1188.798828,2547.656250 
	C1191.168213,2554.605469 1196.107544,2550.455078 1200.870728,2551.068115 
	C1201.338867,2531.883057 1200.693481,2513.400635 1201.269531,2494.276123 
	C1210.207275,2494.276123 1217.732666,2494.276123 1225.692261,2494.276123 
	C1226.097412,2490.700195 1226.455200,2487.542969 1226.837036,2484.173096 
	C1213.485718,2480.246582 1201.294556,2482.123535 1188.760864,2486.688965 
	C1188.760864,2506.636719 1188.760864,2526.267578 1188.798828,2547.656250 
M1786.013672,2532.881104 
	C1786.013672,2516.483643 1786.013672,2500.086426 1786.013672,2483.040283 
	C1781.076416,2483.283203 1777.656738,2483.451416 1774.645142,2483.599609 
	C1774.645142,2506.804932 1774.645142,2528.840332 1774.645142,2551.495361 
	C1778.841797,2551.306885 1782.256348,2551.153564 1786.013672,2550.985107 
	C1786.013672,2544.757324 1786.013672,2539.797119 1786.013672,2532.881104 
M2007.198608,2544.790039 
	C2007.097778,2544.135498 2007.059937,2543.463867 2006.886353,2542.829102 
	C2005.540283,2537.910156 2002.191772,2535.702148 1997.233643,2536.167236 
	C1993.040649,2536.560303 1990.032715,2540.020996 1989.911987,2544.277832 
	C1989.795288,2548.387939 1991.551147,2551.347900 1995.592651,2552.605469 
	C2000.377686,2554.093994 2004.054077,2552.696045 2006.341064,2548.122559 
	C2006.634644,2547.535156 2006.757080,2546.862305 2007.198608,2544.790039 
M1772.508545,2460.142090 
	C1771.251709,2465.395020 1772.610474,2469.387695 1778.213257,2470.841064 
	C1782.271606,2471.893555 1785.313110,2470.132324 1787.052368,2466.387939 
	C1788.621704,2463.009033 1787.986938,2459.658203 1785.215088,2457.395996 
	C1780.962158,2453.925049 1776.747314,2454.463867 1772.508545,2460.142090 
z"/>
<path fill="#33A953" opacity="1.000000" stroke="none" 
	d="
M1410.000000,433.516663 
	C1754.260742,433.516571 2097.521484,433.516571 2440.651855,433.516571 
	C2442.685303,440.938324 2443.167236,605.106079 2441.138672,617.275940 
	C2437.407959,617.275940 2433.489014,617.275940 2429.570068,617.275940 
	C2292.589844,617.275635 2155.609375,617.048340 2018.630005,617.411804 
	C1976.928467,617.522400 1935.666138,622.508850 1895.454956,634.223450 
	C1852.069336,646.862915 1814.796997,669.778259 1781.962158,700.701111 
	C1739.316895,740.863098 1717.839722,791.317627 1707.982422,847.833374 
	C1704.938843,865.283508 1704.010986,882.819458 1704.013184,900.490967 
	C1704.060303,1291.767456 1704.049316,1683.044067 1704.049316,2074.320557 
	C1704.049316,2078.575439 1704.049316,2082.830322 1704.049316,2087.583008 
	C1637.922119,2087.583008 1572.745239,2087.583008 1506.306641,2087.583008 
	C1506.306641,1690.396362 1506.306641,1293.299438 1506.306641,894.925293 
	C1379.995972,892.889343 1254.923096,896.646240 1130.010010,895.527527 
	C1127.935913,888.059692 1127.316162,700.818542 1129.276001,686.026367 
	C1131.993896,685.826477 1134.870605,685.439758 1137.748901,685.428467 
	C1246.031128,685.004639 1354.313354,684.591248 1462.595825,684.236755 
	C1493.257812,684.136414 1523.920288,684.221313 1554.582520,684.221313 
	C1557.898071,684.221313 1561.213623,684.221313 1565.176758,684.221313 
	C1574.718994,665.925171 1584.192749,647.760315 1594.209351,628.554565 
	C1438.569580,628.554565 1284.162476,628.554565 1129.031982,628.554565 
	C1129.031982,563.459412 1129.031982,499.040070 1129.031982,433.516785 
	C1222.568359,433.516785 1315.784180,433.516785 1410.000000,433.516663 
z"/>
<path fill="#FCBC06" opacity="1.000000" stroke="none" 
	d="
M2196.000000,1019.939453 
	C2256.655762,1019.940125 2316.311768,1019.829041 2375.966797,1020.026184 
	C2389.562500,1020.071106 2403.212891,1020.630676 2416.720703,1022.062866 
	C2422.416992,1022.666931 2428.108154,1025.604004 2433.261719,1028.456421 
	C2439.456543,1031.885254 2442.405762,1037.531250 2442.385010,1045.012695 
	C2442.237061,1098.336670 2442.302734,1151.661499 2442.277344,1204.985962 
	C2442.276611,1206.267578 2442.007812,1207.549194 2441.800537,1209.399902 
	C2225.499023,1209.399902 2009.417847,1209.399902 1792.296875,1209.399902 
	C1792.296875,1205.779053 1792.296875,1202.538208 1792.296875,1199.297485 
	C1792.297241,1084.649658 1791.841675,969.999146 1792.536377,855.355530 
	C1792.792480,813.085144 1804.712280,773.861877 1831.940063,740.458252 
	C1854.811646,712.398804 1885.010132,698.203369 1920.766235,697.816284 
	C2020.698975,696.734253 2120.640869,696.414856 2220.580322,696.049072 
	C2268.898926,695.872192 2317.220703,696.155396 2365.539551,696.449158 
	C2389.498291,696.594788 2413.454102,697.228638 2437.410645,697.671387 
	C2438.677979,697.694702 2439.940430,697.995728 2441.733398,698.239258 
	C2441.733398,762.377075 2441.733398,826.203003 2441.733398,890.496216 
	C2439.310547,890.774170 2437.062500,891.228638 2434.808350,891.260010 
	C2415.159180,891.533630 2395.509277,891.807068 2375.858887,891.936035 
	C2336.543701,892.194153 2297.227295,892.246887 2257.913086,892.593994 
	C2208.630127,893.029053 2159.347656,893.570312 2110.067871,894.274475 
	C2086.447754,894.612000 2062.819092,895.090271 2039.224121,896.159668 
	C2025.457764,896.783630 2012.428711,900.797974 2000.544189,908.125000 
	C1989.515991,914.924011 1982.807861,924.943237 1982.580566,937.571594 
	C1982.096069,964.488037 1982.862793,991.427063 1983.129883,1019.742004 
	C2019.688232,1020.147034 2054.856201,1019.880310 2090.018066,1019.928833 
	C2125.011963,1019.977112 2160.006104,1019.939453 2196.000000,1019.939453 
z"/>
<path fill="#EC4235" opacity="1.000000" stroke="none" 
	d="
M1892.010254,2087.948975 
	C1858.443359,2087.956299 1825.878052,2087.956299 1792.814697,2087.956299 
	C1792.814697,1825.821289 1792.814697,1564.678955 1792.814697,1302.315308 
	C1796.599243,1302.210449 1800.445557,1302.010864 1804.291870,1302.010498 
	C1980.252319,1301.995361 2156.212891,1301.997314 2332.173340,1301.997314 
	C2356.501221,1301.997314 2380.829102,1301.985474 2405.156982,1302.010742 
	C2408.486084,1302.014160 2411.853516,1301.913940 2415.137695,1302.353516 
	C2433.001953,1304.743896 2442.248535,1315.267334 2442.264160,1333.325806 
	C2442.311768,1387.980225 2442.279541,1442.634644 2442.278320,1497.289062 
	C2442.278320,1499.880371 2442.278564,1502.471680 2442.278564,1506.046387 
	C2437.507324,1506.046387 2433.593506,1506.046387 2429.679688,1506.046387 
	C2293.376953,1506.046265 2157.074219,1506.030518 2020.771484,1506.113892 
	C2016.182617,1506.116699 2011.473389,1506.635742 2007.028687,1507.747803 
	C1994.613037,1510.853760 1986.927490,1519.005005 1983.847168,1531.346436 
	C1982.808716,1535.507080 1982.353271,1539.824707 1981.817261,1544.093994 
	C1981.570068,1546.062866 1981.771851,1548.087891 1981.766846,1550.087402 
	C1981.375732,1705.018188 1980.976929,1859.948853 1980.600586,2014.879639 
	C1980.544067,2038.151001 1980.592651,2061.422607 1980.592651,2085.468750 
	C1969.954102,2086.098877 1960.458496,2086.947998 1950.948608,2087.164795 
	C1931.640381,2087.604492 1912.324463,2087.702637 1892.010254,2087.948975 
z"/>
<path fill="#EC4539" opacity="1.000000" stroke="none" 
	d="
M2608.143555,2284.000000 
	C2608.143555,2254.057373 2608.143555,2225.114746 2608.143555,2195.930664 
	C2616.468018,2191.837402 2625.209717,2191.955322 2633.669678,2191.260010 
	C2658.951172,2189.181152 2684.175537,2188.638916 2708.990723,2195.566406 
	C2748.136963,2206.494385 2771.812744,2234.260742 2775.620117,2274.730469 
	C2777.056885,2290.000732 2777.030273,2305.370361 2773.252930,2320.412598 
	C2763.957031,2357.432861 2739.588379,2378.969482 2703.196533,2387.772461 
	C2680.590576,2393.240234 2657.631836,2392.802490 2634.674805,2390.797363 
	C2626.137451,2390.051514 2617.657959,2388.643555 2608.143311,2387.406494 
	C2608.143311,2352.741455 2608.143311,2318.870850 2608.143555,2284.000000 
M2644.159424,2255.004150 
	C2644.159424,2289.819824 2644.159424,2324.635254 2644.159424,2359.940186 
	C2659.397461,2361.093506 2673.354492,2361.691650 2687.153809,2359.230225 
	C2712.029541,2354.792725 2728.632812,2340.551514 2735.538086,2315.982422 
	C2739.468506,2301.996826 2739.488037,2287.583740 2737.238525,2273.383057 
	C2734.241943,2254.465088 2725.845459,2238.548340 2708.009521,2229.436523 
	C2687.861572,2219.143799 2666.387451,2220.672607 2644.159424,2222.269775 
	C2644.159424,2233.148438 2644.159424,2243.077881 2644.159424,2255.004150 
z"/>
<path fill="#36AA56" opacity="1.000000" stroke="none" 
	d="
M863.797241,2342.299805 
	C858.355530,2334.666504 853.129517,2327.754639 848.304077,2320.573486 
	C845.572937,2316.509033 842.279419,2315.118164 837.429810,2315.403076 
	C830.161499,2315.830322 822.849487,2315.514404 814.629517,2315.514404 
	C814.629517,2340.360840 814.629517,2364.523682 814.629517,2389.985840 
	C802.299316,2390.369629 790.860474,2390.209717 778.770874,2390.101318 
	C778.770874,2325.019043 778.770874,2260.588623 778.770874,2195.414795 
	C782.205505,2194.689941 785.674194,2193.722900 789.208923,2193.249512 
	C816.058350,2189.653320 842.915344,2188.060547 869.664917,2193.994629 
	C874.518066,2195.071533 879.356873,2196.481445 883.973083,2198.314941 
	C916.335876,2211.168945 930.537354,2246.168457 916.618530,2278.290527 
	C911.622253,2289.820801 903.095642,2297.887451 892.202271,2303.699463 
	C889.031128,2305.391357 885.788940,2306.949951 882.081482,2308.820801 
	C901.710327,2334.252197 919.146667,2360.411865 933.121643,2389.848389 
	C918.871948,2389.848389 905.957031,2389.848389 893.498352,2389.848389 
	C883.556274,2373.930420 873.868408,2358.419678 863.797241,2342.299805 
M814.156311,2264.947266 
	C814.156311,2271.795410 814.156311,2278.643799 814.156311,2286.075928 
	C830.048096,2286.017090 844.624207,2287.039795 859.019165,2283.756592 
	C875.087402,2280.092041 883.317017,2270.235352 883.601868,2254.436035 
	C883.885315,2238.716553 875.974731,2228.289551 860.198120,2224.116455 
	C845.241882,2220.160889 830.125305,2221.489014 814.156372,2222.190186 
	C814.156372,2236.524902 814.156372,2249.742432 814.156311,2264.947266 
z"/>
<path fill="#FCBD0A" opacity="1.000000" stroke="none" 
	d="
M2251.950195,2358.761719 
	C2260.182129,2358.762207 2267.425049,2358.762207 2275.111816,2358.762207 
	C2275.111816,2369.527344 2275.111816,2379.050781 2275.111816,2389.303711 
	C2230.788574,2389.303711 2186.656494,2389.303711 2141.852051,2389.303711 
	C2141.852051,2324.006348 2141.852051,2258.550049 2141.852051,2192.535645 
	C2183.835449,2192.535645 2225.669189,2192.535645 2268.037842,2192.535645 
	C2268.037842,2202.425781 2268.037842,2212.251709 2268.037842,2222.997070 
	C2238.072021,2222.997070 2208.558594,2222.997070 2177.642822,2222.997070 
	C2177.564941,2231.718262 2177.468506,2239.563965 2177.432373,2247.409668 
	C2177.397461,2255.061768 2177.424561,2262.714111 2177.424561,2271.432861 
	C2204.303223,2271.432861 2230.763916,2271.432861 2257.890381,2271.432861 
	C2257.890381,2281.952393 2257.890381,2291.417725 2257.890381,2301.936279 
	C2231.429932,2301.936279 2204.968018,2301.936279 2177.977539,2301.936279 
	C2177.977539,2321.112793 2177.977539,2339.247314 2177.977539,2358.761475 
	C2202.574463,2358.761475 2226.767822,2358.761475 2251.950195,2358.761719 
z"/>
<path fill="#FCBD0A" opacity="1.000000" stroke="none" 
	d="
M1719.147949,2385.345703 
	C1714.019287,2371.140625 1709.215698,2357.693359 1704.269531,2343.846680 
	C1676.386108,2343.846680 1648.876831,2343.846680 1620.694702,2343.846680 
	C1615.382446,2358.855957 1610.079590,2373.838623 1604.581787,2389.372070 
	C1592.676025,2389.372070 1580.825928,2389.372070 1568.971313,2389.372070 
	C1569.486450,2374.063232 1630.843750,2217.993652 1646.574463,2192.291504 
	C1657.326416,2192.291504 1668.273926,2192.291504 1680.515869,2192.291504 
	C1710.602783,2255.776611 1735.461182,2321.916992 1759.529907,2389.919922 
	C1746.428589,2389.919922 1734.879395,2390.042480 1723.340576,2389.752197 
	C1722.021484,2389.718994 1720.760742,2387.375488 1719.147949,2385.345703 
M1658.334351,2239.595947 
	C1648.853271,2264.016846 1639.372070,2288.437988 1629.616089,2313.566895 
	C1651.897095,2313.566895 1672.730835,2313.566895 1695.228638,2313.566895 
	C1684.525024,2285.841553 1674.183105,2259.052734 1663.204468,2230.615234 
	C1661.120239,2234.345459 1660.029907,2236.296875 1658.334351,2239.595947 
z"/>
<path fill="#36AA55" opacity="1.000000" stroke="none" 
	d="
M982.055176,2226.002930 
	C982.056946,2254.666748 981.973206,2282.331543 982.127991,2309.994873 
	C982.161316,2315.958496 982.688293,2321.975098 983.614624,2327.868652 
	C987.986816,2355.684326 1009.068237,2365.614746 1034.260986,2361.192383 
	C1050.510986,2358.339600 1059.985107,2347.737549 1063.600342,2332.127441 
	C1065.236694,2325.061768 1065.825806,2317.619873 1065.872803,2310.342041 
	C1066.101440,2275.013184 1065.985474,2239.682129 1065.991333,2204.351807 
	C1065.991943,2200.734619 1065.991455,2197.117676 1065.991455,2192.817139 
	C1078.109131,2192.817139 1089.546875,2192.817139 1101.678467,2192.817139 
	C1101.837280,2195.588867 1102.110962,2198.155518 1102.112549,2200.722168 
	C1102.135864,2239.385498 1102.067139,2278.049316 1102.151978,2316.712402 
	C1102.179443,2329.202148 1100.294800,2341.314209 1095.393188,2352.794189 
	C1084.624390,2378.015625 1064.290771,2390.262451 1038.041870,2393.444336 
	C1022.413391,2395.338867 1006.698608,2394.829102 991.603455,2389.506348 
	C970.700012,2382.135498 956.683105,2367.721436 950.321655,2346.563232 
	C947.857117,2338.366455 946.241272,2329.590820 946.150574,2321.058594 
	C945.714478,2280.066650 945.927246,2239.067627 945.935669,2198.071289 
	C945.935974,2196.469238 946.201721,2194.867188 946.392395,2192.717773 
	C957.977966,2192.717773 969.173279,2192.717773 981.756775,2192.717773 
	C982.397522,2203.316162 981.893921,2214.177002 982.055176,2226.002930 
z"/>
<path fill="#FCBD0A" opacity="1.000000" stroke="none" 
	d="
M1759.657471,2267.711670 
	C1767.257568,2229.158691 1787.635376,2202.379150 1825.359985,2191.216309 
	C1851.874390,2183.370117 1878.065552,2186.400391 1903.542480,2196.517578 
	C1906.887207,2197.845703 1909.953491,2199.874756 1913.879028,2201.968750 
	C1910.470703,2211.384277 1907.229004,2220.339355 1903.700317,2230.087646 
	C1900.896240,2229.083740 1898.475220,2228.389404 1896.197632,2227.373047 
	C1882.567627,2221.290771 1868.293213,2218.792969 1853.412720,2219.288574 
	C1827.562134,2220.148926 1808.334473,2234.043945 1800.340088,2258.744873 
	C1793.258423,2280.625732 1793.665039,2302.812744 1800.948120,2324.554443 
	C1808.752686,2347.852783 1827.522949,2360.985840 1852.288696,2361.970459 
	C1870.588257,2362.698242 1888.068237,2359.576416 1905.641846,2351.085938 
	C1910.019897,2360.371338 1912.412842,2369.876709 1915.628174,2379.355957 
	C1909.693848,2384.634277 1902.523071,2386.233154 1895.588013,2388.258789 
	C1876.152710,2393.935547 1856.290283,2395.877686 1836.298828,2392.808350 
	C1794.896118,2386.451660 1770.072266,2363.015869 1760.992188,2322.195312 
	C1757.049561,2304.471191 1756.809448,2286.533691 1759.657471,2267.711670 
z"/>
<path fill="#FCBD0B" opacity="1.000000" stroke="none" 
	d="
M1575.561035,2301.272949 
	C1572.321289,2302.810791 1569.214600,2303.925537 1566.098755,2303.951172 
	C1546.453247,2304.113037 1526.805908,2304.033203 1507.159058,2304.033203 
	C1503.897095,2304.033203 1500.635010,2304.033203 1496.584717,2304.033203 
	C1496.584717,2332.690186 1496.584717,2360.536133 1496.584717,2389.554443 
	C1484.417969,2390.458252 1472.969360,2389.872314 1460.834961,2389.997314 
	C1460.834961,2323.984375 1460.834961,2258.601318 1460.834961,2192.594238 
	C1502.093872,2192.594238 1543.216675,2192.594238 1585.032959,2192.594238 
	C1585.032959,2202.370850 1585.032959,2212.154541 1585.032959,2223.043945 
	C1555.760254,2223.043945 1526.605469,2223.043945 1496.804443,2223.043945 
	C1496.804443,2239.912598 1496.804443,2255.697021 1496.804443,2272.630127 
	C1522.930176,2272.630127 1548.724487,2272.630127 1575.689697,2272.630127 
	C1575.689697,2282.601562 1575.689697,2291.473877 1575.561035,2301.272949 
z"/>
<path fill="#36AA55" opacity="1.000000" stroke="none" 
	d="
M1383.666260,2192.129395 
	C1388.197388,2192.129395 1391.789429,2192.129395 1397.008789,2192.129395 
	C1394.890259,2196.484619 1393.554321,2199.754639 1391.790894,2202.775146 
	C1371.984253,2236.699463 1352.235962,2270.659424 1332.135742,2304.409424 
	C1328.759033,2310.078857 1326.920654,2315.529785 1327.028198,2322.154297 
	C1327.336792,2341.140625 1327.136963,2360.134766 1327.136963,2379.125977 
	C1327.136963,2382.400146 1327.136841,2385.674316 1327.136841,2389.571777 
	C1314.839722,2389.571777 1303.393066,2389.571777 1290.870972,2389.571777 
	C1290.870972,2386.041016 1290.870972,2382.786377 1290.870972,2379.531494 
	C1290.871216,2360.207275 1290.703247,2340.880371 1290.972290,2321.560059 
	C1291.055054,2315.610107 1289.323975,2310.764893 1286.316162,2305.694824 
	C1265.933350,2271.337646 1245.839478,2236.808838 1225.713989,2202.299561 
	C1224.100098,2199.532227 1222.950073,2196.494141 1221.167603,2192.693359 
	C1235.438843,2192.693359 1248.576172,2192.693359 1261.672729,2192.693359 
	C1277.062988,2221.233398 1292.497314,2249.855225 1309.087036,2280.619385 
	C1327.769409,2250.835449 1343.464233,2222.197266 1357.567627,2192.129395 
	C1366.147095,2192.129395 1374.437134,2192.129395 1383.666260,2192.129395 
z"/>
<path fill="#EC4639" opacity="1.000000" stroke="none" 
	d="
M2497.150879,2287.999512 
	C2497.151367,2266.369629 2497.151367,2245.739502 2497.151367,2223.676025 
	C2476.942871,2222.583008 2457.131592,2223.772705 2436.794189,2222.979004 
	C2436.794189,2212.552979 2436.794189,2202.799805 2436.794189,2192.507324 
	C2489.173340,2192.507324 2541.257080,2192.507324 2593.816895,2192.507324 
	C2593.816895,2202.476562 2593.816895,2212.010010 2593.816895,2222.792725 
	C2574.355957,2223.922119 2554.853516,2222.673584 2534.088135,2223.534180 
	C2533.308838,2234.408447 2533.814697,2245.258057 2533.724365,2256.067871 
	C2533.632324,2267.056396 2533.704346,2278.046387 2533.704346,2289.035645 
	C2533.704346,2300.358154 2533.704346,2311.680420 2533.704346,2323.002930 
	C2533.704346,2333.992188 2533.704346,2344.981689 2533.704346,2355.970947 
	C2533.704346,2366.899902 2533.704102,2377.829102 2533.704102,2389.389160 
	C2521.475586,2389.389160 2509.984131,2389.389160 2497.150391,2389.389160 
	C2497.150391,2356.000000 2497.150391,2322.500000 2497.150879,2287.999512 
z"/>
<path fill="#36AA56" opacity="1.000000" stroke="none" 
	d="
M649.935669,2223.541016 
	C635.630981,2223.541016 622.319519,2223.541016 607.696533,2223.541016 
	C606.852112,2213.021729 607.275391,2202.951172 607.417419,2192.495850 
	C660.195557,2192.495850 712.118347,2192.495850 764.842224,2192.495850 
	C764.842224,2202.368652 764.842224,2212.169922 764.842224,2223.168701 
	C745.232239,2223.168701 725.416687,2223.168701 704.692139,2223.168701 
	C704.692139,2279.170898 704.692139,2334.008789 704.692139,2389.522461 
	C692.311768,2389.522461 680.847351,2389.522461 668.399536,2389.522461 
	C668.399536,2334.647949 668.399536,2279.830566 668.399536,2223.541260 
	C661.965759,2223.541260 656.447327,2223.541260 649.935669,2223.541016 
z"/>
<path fill="#EC4639" opacity="1.000000" stroke="none" 
	d="
M2383.469238,2246.000000 
	C2383.469238,2283.856445 2383.469238,2320.712646 2383.469238,2358.450439 
	C2413.313232,2358.450439 2442.133057,2358.450439 2471.712646,2358.450439 
	C2471.712646,2369.099121 2471.712646,2378.898926 2471.712646,2389.374512 
	C2430.858643,2389.374512 2389.786377,2389.374512 2348.665771,2389.374512 
	C2346.842529,2382.452393 2346.419434,2203.206543 2348.300537,2192.293213 
	C2359.512207,2192.293213 2370.780273,2192.293213 2383.469482,2192.293213 
	C2383.469482,2209.971191 2383.469482,2227.485596 2383.469238,2246.000000 
z"/>
<path fill="#FCBD0B" opacity="1.000000" stroke="none" 
	d="
M2003.181641,2353.997314 
	C2003.182251,2299.715332 2003.182251,2246.432373 2003.182251,2192.564453 
	C2015.415405,2192.564453 2026.860596,2192.564453 2039.362061,2192.564453 
	C2039.362061,2247.729248 2039.362061,2302.557373 2039.362061,2358.309814 
	C2069.228271,2358.309814 2098.072510,2358.309814 2127.720215,2358.309814 
	C2127.720215,2368.999756 2127.720215,2378.805176 2127.720215,2389.331055 
	C2086.882568,2389.331055 2045.761353,2389.331055 2003.180908,2389.331055 
	C2003.180908,2378.032959 2003.180908,2366.514893 2003.181641,2353.997314 
z"/>
<path fill="#35AA55" opacity="1.000000" stroke="none" 
	d="
M1237.951904,2390.198975 
	C1203.074829,2390.198975 1169.191528,2390.198975 1134.723389,2390.198975 
	C1134.723389,2323.980957 1134.723389,2258.614502 1134.723389,2192.688477 
	C1146.269043,2192.688477 1157.442505,2192.688477 1168.650024,2192.688477 
	C1168.873047,2192.886475 1169.152832,2193.082031 1169.362061,2193.335693 
	C1169.559570,2193.575439 1169.777100,2193.861572 1169.821289,2194.152588 
	C1169.970825,2195.135742 1170.136353,2196.129639 1170.138794,2197.119873 
	C1170.270630,2250.369141 1170.385986,2303.618408 1170.515381,2356.867676 
	C1170.516113,2357.185791 1170.689087,2357.503174 1171.145142,2359.070557 
	C1180.201660,2359.820068 1189.765747,2359.323242 1199.289429,2359.406250 
	C1209.274902,2359.493408 1219.261841,2359.425781 1229.248047,2359.425781 
	C1238.875977,2359.425781 1248.503906,2359.425781 1258.910156,2359.425781 
	C1258.910156,2369.754395 1258.910156,2379.470459 1258.910156,2390.198975 
	C1252.097412,2390.198975 1245.521484,2390.198975 1237.951904,2390.198975 
z"/>
<path fill="#FCBD0A" opacity="1.000000" stroke="none" 
	d="
M1970.137451,2220.013184 
	C1970.137451,2276.882812 1970.137451,2332.755859 1970.137451,2389.326904 
	C1958.132568,2389.326904 1946.711914,2389.326904 1934.714966,2389.326904 
	C1934.714966,2323.748535 1934.714966,2258.391357 1934.714966,2192.657715 
	C1936.329468,2192.400635 1937.580566,2192.034424 1938.833618,2192.028564 
	C1948.781250,2191.980957 1958.729248,2192.002197 1970.137451,2192.002197 
	C1970.137451,2201.357178 1970.137451,2210.186768 1970.137451,2220.013184 
z"/>
<path fill="#414040" opacity="1.000000" stroke="none" 
	d="
M2289.876953,2508.840820 
	C2289.918457,2523.298584 2289.918457,2536.851074 2289.918457,2550.907959 
	C2285.721191,2550.907959 2282.524170,2550.907959 2277.826416,2550.907959 
	C2277.826416,2546.720215 2277.841064,2542.541260 2277.823242,2538.362305 
	C2277.785156,2529.375488 2278.019531,2520.375977 2277.616699,2511.405029 
	C2276.945557,2496.448730 2272.517090,2492.656982 2257.714111,2493.659180 
	C2255.451660,2493.812256 2253.204590,2494.195312 2250.008301,2494.587646 
	C2250.008301,2513.509277 2250.008301,2531.963867 2250.008301,2550.913574 
	C2245.768555,2550.913574 2242.574951,2550.913574 2238.646484,2550.913574 
	C2238.646484,2529.378418 2238.646484,2507.915283 2238.646484,2485.483398 
	C2253.545898,2482.496582 2268.668213,2477.886719 2282.884521,2488.027832 
	C2288.184570,2486.168213 2293.064941,2483.896729 2298.196533,2482.756592 
	C2315.894287,2478.824219 2327.522217,2487.259521 2329.580811,2505.231934 
	C2329.958008,2508.525879 2329.902832,2511.878418 2329.913330,2515.204102 
	C2329.949951,2526.808105 2329.927734,2538.412109 2329.927734,2550.719482 
	C2325.832275,2550.719482 2322.398193,2550.719482 2317.772705,2550.719482 
	C2317.772705,2541.383057 2317.886475,2532.165283 2317.731934,2522.952393 
	C2317.631836,2516.977539 2317.663086,2510.923340 2316.702637,2505.057617 
	C2315.219971,2496.003662 2311.533447,2493.339844 2302.269531,2493.503174 
	C2297.281006,2493.591309 2292.303467,2493.951660 2288.387451,2498.186523 
	C2288.868408,2501.424561 2289.352051,2504.679932 2289.876953,2508.840820 
z"/>
<path fill="#424242" opacity="1.000000" stroke="none" 
	d="
M1924.162476,2553.373535 
	C1920.335938,2552.970703 1917.345215,2552.711914 1914.414185,2552.144287 
	C1907.299316,2550.766357 1901.386108,2547.278320 1896.937744,2541.513184 
	C1886.979614,2528.607422 1887.657715,2504.308594 1898.614502,2492.151123 
	C1906.924072,2482.930908 1917.450195,2480.158447 1929.429810,2483.211670 
	C1941.341309,2486.247070 1946.643921,2494.880859 1948.269165,2506.299316 
	C1948.912598,2510.819336 1949.016357,2515.416260 1949.455811,2521.153320 
	C1933.747681,2521.153320 1918.967529,2521.153320 1904.210449,2521.153320 
	C1904.134644,2534.198730 1909.901489,2540.841553 1921.512329,2541.833252 
	C1925.134766,2542.142334 1928.838013,2542.031494 1932.459595,2541.667236 
	C1935.690308,2541.342285 1938.859253,2540.403076 1942.679932,2539.604248 
	C1943.293213,2542.889648 1943.819824,2545.710693 1944.387329,2548.750732 
	C1938.268188,2552.928223 1931.460938,2552.416260 1924.162476,2553.373535 
M1919.415771,2492.218506 
	C1907.785767,2495.688721 1904.184814,2500.210205 1904.737915,2510.816406 
	C1914.937622,2510.816406 1925.140869,2510.816406 1935.315308,2510.816406 
	C1936.006348,2499.003906 1932.601196,2494.687256 1919.415771,2492.218506 
z"/>
<path fill="#414040" opacity="1.000000" stroke="none" 
	d="
M1453.020264,2558.965820 
	C1443.062134,2574.226318 1434.834961,2577.522705 1417.517700,2573.214600 
	C1417.786499,2570.463135 1418.065308,2567.609375 1418.347900,2564.716553 
	C1419.783447,2564.503418 1420.728271,2564.258301 1421.677368,2564.240967 
	C1425.624268,2564.168701 1429.752808,2564.902100 1433.484375,2563.989746 
	C1442.529419,2561.777832 1445.724609,2553.514893 1442.181152,2545.007080 
	C1434.907471,2527.543457 1428.046631,2509.907227 1421.110229,2492.304932 
	C1420.155640,2489.882568 1419.739136,2487.248291 1418.854492,2483.876953 
	C1423.287720,2483.876953 1427.043457,2483.876953 1431.382080,2483.876953 
	C1437.122681,2500.672607 1441.154053,2518.499512 1451.133667,2536.760498 
	C1454.415894,2526.416260 1457.239014,2518.179688 1459.624512,2509.817871 
	C1462.076904,2501.221680 1464.102051,2492.503662 1466.384766,2483.562500 
	C1470.345581,2483.562500 1473.891846,2483.562500 1478.700439,2483.562500 
	C1472.241089,2509.678467 1464.583496,2534.580811 1453.020264,2558.965820 
z"/>
<path fill="#414040" opacity="1.000000" stroke="none" 
	d="
M2139.949707,2491.979004 
	C2150.633057,2481.659912 2162.581543,2479.318604 2175.383057,2484.710205 
	C2188.450439,2490.213867 2193.861572,2501.409668 2194.291260,2515.013428 
	C2194.456299,2520.242432 2193.977539,2525.731689 2192.512695,2530.727051 
	C2188.177002,2545.511475 2175.553223,2554.257568 2161.125732,2553.236572 
	C2146.262939,2552.184814 2134.823975,2542.323242 2132.156738,2527.465820 
	C2129.913818,2514.973145 2130.937012,2502.895020 2139.949707,2491.979004 
M2179.456787,2504.274902 
	C2173.173340,2494.578369 2167.354492,2491.759766 2158.034180,2493.896484 
	C2150.546875,2495.613037 2144.705322,2502.811035 2144.228027,2512.636719 
	C2143.943604,2518.489990 2144.495605,2524.690186 2146.208496,2530.261719 
	C2148.666748,2538.259521 2154.973145,2542.032959 2162.881592,2542.026855 
	C2170.695068,2542.020752 2176.739746,2537.965088 2179.714111,2530.258301 
	C2182.825195,2522.197510 2182.804199,2513.988281 2179.456787,2504.274902 
z"/>
<path fill="#414040" opacity="1.000000" stroke="none" 
	d="
M1589.201416,2530.299072 
	C1589.834717,2519.357666 1595.913208,2513.645020 1605.257324,2511.907959 
	C1612.913208,2510.484619 1620.845947,2510.550293 1628.810181,2509.944336 
	C1630.417725,2498.504395 1625.892090,2492.389648 1614.597534,2492.284424 
	C1609.348755,2492.235596 1604.090454,2493.226807 1598.004272,2493.828613 
	C1597.359253,2491.271484 1596.684570,2488.596436 1595.944702,2485.662842 
	C1604.465210,2482.020264 1612.663940,2481.404053 1620.937622,2482.370361 
	C1633.769409,2483.869141 1640.985229,2490.891357 1641.581909,2503.895020 
	C1642.265137,2518.783203 1641.740112,2533.727051 1641.740112,2549.125000 
	C1630.940552,2551.871582 1620.451538,2552.776123 1609.887207,2551.872559 
	C1596.337769,2550.713623 1590.799561,2544.902344 1589.201416,2530.299072 
M1602.372925,2535.965820 
	C1610.063232,2545.723145 1620.010620,2541.168457 1629.327393,2541.474609 
	C1629.327393,2534.108887 1629.327393,2527.998779 1629.327393,2520.545410 
	C1623.230469,2520.545410 1617.659302,2519.945801 1612.272339,2520.686035 
	C1604.211304,2521.792969 1601.984741,2525.246094 1602.372925,2535.965820 
z"/>
<path fill="#414040" opacity="1.000000" stroke="none" 
	d="
M1264.066162,2490.741211 
	C1264.191772,2487.925537 1264.318237,2486.016846 1264.470825,2483.712891 
	C1268.506836,2483.712891 1271.992432,2483.712891 1276.182983,2483.712891 
	C1276.182983,2494.870117 1276.136841,2505.468994 1276.192627,2516.067383 
	C1276.309448,2538.283203 1282.145020,2543.268555 1304.123657,2540.013916 
	C1304.428101,2539.968994 1304.708862,2539.764160 1306.036377,2539.171875 
	C1306.036377,2521.240723 1306.036377,2502.798340 1306.036377,2483.762695 
	C1310.562378,2483.762695 1314.064819,2483.762695 1318.112793,2483.762695 
	C1318.112793,2505.336914 1318.112793,2526.810059 1318.112793,2548.587646 
	C1307.285156,2552.009277 1296.421387,2553.069336 1285.491089,2551.679688 
	C1275.337524,2550.388916 1268.207397,2544.606201 1265.931763,2534.379395 
	C1264.646973,2528.604492 1264.348755,2522.554199 1264.142944,2516.609131 
	C1263.855103,2508.297607 1264.068237,2499.969238 1264.066162,2490.741211 
z"/>
<path fill="#464646" opacity="1.000000" stroke="none" 
	d="
M1533.940674,2451.217285 
	C1542.334839,2449.501221 1549.834717,2449.334717 1557.712891,2452.691162 
	C1556.985229,2455.815674 1556.333008,2458.615723 1555.690186,2461.375977 
	C1533.618408,2458.637939 1527.713379,2463.390869 1530.071655,2482.654297 
	C1537.757812,2482.654297 1545.600830,2482.654297 1554.227417,2482.654297 
	C1554.227417,2486.608887 1554.227417,2489.632080 1554.227417,2493.546631 
	C1545.912842,2493.546631 1538.046509,2493.546631 1529.294312,2493.546631 
	C1529.294312,2512.912842 1529.294312,2531.418701 1529.294312,2550.937012 
	C1524.997925,2551.151855 1521.557007,2551.323730 1517.485229,2551.527344 
	C1517.201416,2548.233398 1516.794312,2545.661865 1516.787720,2543.089355 
	C1516.735474,2522.425537 1516.730835,2501.761719 1516.787842,2481.097900 
	C1516.796997,2477.775635 1517.014771,2474.433105 1517.427124,2471.136230 
	C1518.644165,2461.405518 1523.131348,2454.196777 1533.940674,2451.217285 
z"/>
<path fill="#424242" opacity="1.000000" stroke="none" 
	d="
M1146.542480,2539.321289 
	C1147.839111,2542.479004 1148.462891,2545.320312 1149.211670,2548.731201 
	C1145.483032,2549.865479 1142.432739,2551.155762 1139.254517,2551.700195 
	C1119.807129,2555.034180 1109.748169,2547.128418 1109.342407,2527.450195 
	C1108.917114,2506.825439 1109.247314,2486.184814 1109.247314,2464.415283 
	C1112.919556,2463.674561 1116.598877,2462.932373 1121.323242,2461.979492 
	C1121.323242,2469.265137 1121.323242,2475.484375 1121.323242,2482.720703 
	C1129.893066,2482.720703 1137.695312,2482.720703 1146.142700,2482.720703 
	C1146.350342,2486.526367 1146.503784,2489.341553 1146.714233,2493.199219 
	C1138.255737,2493.199219 1130.446167,2493.199219 1121.991577,2493.199219 
	C1121.991577,2506.695312 1121.598022,2519.226562 1122.161499,2531.714355 
	C1122.433838,2537.750244 1125.964844,2540.616455 1132.109131,2540.745361 
	C1136.681763,2540.841309 1141.281860,2539.632324 1146.542480,2539.321289 
z"/>
<path fill="#EC4639" opacity="1.000000" stroke="none" 
	d="
M2823.690186,2387.686768 
	C2817.941650,2390.135742 2812.863281,2393.292969 2807.554199,2393.745850 
	C2797.060303,2394.641602 2788.484131,2387.964844 2785.640381,2378.415039 
	C2782.688232,2368.499512 2786.123779,2358.430908 2794.370117,2352.832275 
	C2802.622070,2347.229736 2814.579834,2347.831543 2822.383301,2354.242188 
	C2829.937256,2360.447754 2832.628662,2371.354492 2828.612061,2380.549805 
	C2827.569580,2382.936279 2825.729980,2384.974365 2823.690186,2387.686768 
z"/>
<path fill="#414040" opacity="1.000000" stroke="none" 
	d="
M2078.300781,2482.075195 
	C2084.707031,2482.767578 2090.242432,2483.486816 2096.708252,2484.327148 
	C2096.167725,2488.247314 2095.741943,2491.337646 2095.245117,2494.942139 
	C2084.701416,2494.170410 2074.065186,2490.244629 2065.734863,2499.106934 
	C2060.045166,2505.160400 2059.560059,2512.869385 2059.960449,2520.642334 
	C2060.884277,2538.588379 2070.580566,2543.941406 2096.537842,2540.457275 
	C2097.106689,2543.191162 2097.686279,2545.975830 2098.451172,2549.650635 
	C2084.583984,2554.559326 2071.358154,2555.694824 2059.457275,2546.675293 
	C2045.943970,2536.433838 2045.332642,2521.498535 2048.567871,2506.704346 
	C2051.820312,2491.832031 2061.953613,2483.437988 2078.300781,2482.075195 
z"/>
<path fill="#414040" opacity="1.000000" stroke="none" 
	d="
M1684.059570,2508.147461 
	C1692.121704,2484.342773 1708.383057,2476.908936 1732.809814,2485.755371 
	C1732.192993,2488.712158 1731.551880,2491.784912 1730.864380,2495.080078 
	C1719.167847,2493.702637 1706.989868,2489.692871 1699.712280,2502.032227 
	C1693.770508,2512.106934 1693.537354,2523.480225 1699.859375,2533.405762 
	C1707.638428,2545.618408 1720.013062,2542.118408 1732.498901,2540.200439 
	C1733.088989,2543.249512 1733.672729,2546.266357 1734.340332,2549.716309 
	C1722.996460,2553.801270 1712.382568,2554.778564 1701.727539,2550.383545 
	C1691.254883,2546.063721 1685.505127,2537.760986 1684.043457,2526.829102 
	C1683.259644,2520.967773 1683.929810,2514.912109 1684.059570,2508.147461 
z"/>
<path fill="#424242" opacity="1.000000" stroke="none" 
	d="
M1833.033936,2538.284180 
	C1832.839722,2509.510986 1832.839722,2481.559814 1832.839722,2452.558594 
	C1836.228882,2451.800537 1839.878784,2450.984131 1844.651733,2449.916504 
	C1844.651733,2454.314209 1844.651489,2457.556152 1844.651733,2460.798096 
	C1844.653320,2483.111328 1844.687988,2505.424805 1844.637573,2527.738037 
	C1844.621582,2534.791748 1845.116211,2541.392822 1854.560303,2542.196289 
	C1854.064453,2545.833740 1853.679199,2548.659668 1853.307495,2551.386230 
	C1840.669556,2551.790039 1837.093994,2549.533691 1833.033936,2538.284180 
z"/>
<path fill="#424242" opacity="1.000000" stroke="none" 
	d="
M1364.423096,2470.175781 
	C1364.423218,2463.898682 1364.423218,2458.593750 1364.423218,2452.749756 
	C1368.165161,2451.875977 1371.584717,2451.077637 1375.936157,2450.061523 
	C1376.207764,2453.475830 1376.618896,2456.287109 1376.625610,2459.099609 
	C1376.679688,2482.053955 1376.594727,2505.008545 1376.688721,2527.962646 
	C1376.730469,2538.153564 1377.074585,2538.477783 1386.434204,2543.326660 
	C1386.143066,2545.773926 1385.833862,2548.373047 1385.515137,2551.052734 
	C1384.465454,2551.396484 1383.529663,2552.010010 1382.641602,2551.947266 
	C1369.649414,2551.030518 1364.622559,2545.750000 1364.480469,2532.026123 
	C1364.270142,2511.735352 1364.424194,2491.440674 1364.423096,2470.175781 
z"/>
<path fill="#464646" opacity="1.000000" stroke="none" 
	d="
M1188.779785,2546.777344 
	C1188.760864,2526.267578 1188.760864,2506.636719 1188.760864,2486.688965 
	C1201.294556,2482.123535 1213.485718,2480.246582 1226.837036,2484.173096 
	C1226.455200,2487.542969 1226.097412,2490.700195 1225.692261,2494.276123 
	C1217.732666,2494.276123 1210.207275,2494.276123 1201.269531,2494.276123 
	C1200.693481,2513.400635 1201.338867,2531.883057 1200.870728,2551.068115 
	C1196.107544,2550.455078 1191.168213,2554.605469 1188.779785,2546.777344 
z"/>
<path fill="#424242" opacity="1.000000" stroke="none" 
	d="
M1786.013672,2533.858887 
	C1786.013672,2539.797119 1786.013672,2544.757324 1786.013672,2550.985107 
	C1782.256348,2551.153564 1778.841797,2551.306885 1774.645142,2551.495361 
	C1774.645142,2528.840332 1774.645142,2506.804932 1774.645142,2483.599609 
	C1777.656738,2483.451416 1781.076416,2483.283203 1786.013672,2483.040283 
	C1786.013672,2500.086426 1786.013672,2516.483643 1786.013672,2533.858887 
z"/>
<path fill="#464646" opacity="1.000000" stroke="none" 
	d="
M2007.078613,2545.509521 
	C2006.757080,2546.862305 2006.634644,2547.535156 2006.341064,2548.122559 
	C2004.054077,2552.696045 2000.377686,2554.093994 1995.592651,2552.605469 
	C1991.551147,2551.347900 1989.795288,2548.387939 1989.911987,2544.277832 
	C1990.032715,2540.020996 1993.040649,2536.560303 1997.233643,2536.167236 
	C2002.191772,2535.702148 2005.540283,2537.910156 2006.886353,2542.829102 
	C2007.059937,2543.463867 2007.097778,2544.135498 2007.078613,2545.509521 
z"/>
<path fill="#464646" opacity="1.000000" stroke="none" 
	d="
M1772.860840,2459.490479 
	C1776.747314,2454.463867 1780.962158,2453.925049 1785.215088,2457.395996 
	C1787.986938,2459.658203 1788.621704,2463.009033 1787.052368,2466.387939 
	C1785.313110,2470.132324 1782.271606,2471.893555 1778.213257,2470.841064 
	C1772.610474,2469.387695 1771.251709,2465.395020 1772.860840,2459.490479 
z"/>
<path fill="#FFFDFD" opacity="1.000000" stroke="none" 
	d="
M2644.159424,2254.005859 
	C2644.159424,2243.077881 2644.159424,2233.148438 2644.159424,2222.269775 
	C2666.387451,2220.672607 2687.861572,2219.143799 2708.009521,2229.436523 
	C2725.845459,2238.548340 2734.241943,2254.465088 2737.238525,2273.383057 
	C2739.488037,2287.583740 2739.468506,2301.996826 2735.538086,2315.982422 
	C2728.632812,2340.551514 2712.029541,2354.792725 2687.153809,2359.230225 
	C2673.354492,2361.691650 2659.397461,2361.093506 2644.159424,2359.940186 
	C2644.159424,2324.635254 2644.159424,2289.819824 2644.159424,2254.005859 
z"/>
<path fill="#FBFDFC" opacity="1.000000" stroke="none" 
	d="
M814.156372,2263.953613 
	C814.156372,2249.742432 814.156372,2236.524902 814.156372,2222.190186 
	C830.125305,2221.489014 845.241882,2220.160889 860.198120,2224.116455 
	C875.974731,2228.289551 883.885315,2238.716553 883.601868,2254.436035 
	C883.317017,2270.235352 875.087402,2280.092041 859.019165,2283.756592 
	C844.624207,2287.039795 830.048096,2286.017090 814.156311,2286.075928 
	C814.156311,2278.643799 814.156311,2271.795410 814.156372,2263.953613 
z"/>
<path fill="#FEFDFA" opacity="1.000000" stroke="none" 
	d="
M1658.636963,2238.922119 
	C1660.029907,2236.296875 1661.120239,2234.345459 1663.204468,2230.615234 
	C1674.183105,2259.052734 1684.525024,2285.841553 1695.228638,2313.566895 
	C1672.730835,2313.566895 1651.897095,2313.566895 1629.616089,2313.566895 
	C1639.372070,2288.437988 1648.853271,2264.016846 1658.636963,2238.922119 
z"/>
<path fill="#F9F9F9" opacity="1.000000" stroke="none" 
	d="
M1920.197754,2492.199707 
	C1932.601196,2494.687256 1936.006348,2499.003906 1935.315308,2510.816406 
	C1925.140869,2510.816406 1914.937622,2510.816406 1904.737915,2510.816406 
	C1904.184814,2500.210205 1907.785767,2495.688721 1920.197754,2492.199707 
z"/>
<path fill="#F9F9F9" opacity="1.000000" stroke="none" 
	d="
M2179.725830,2505.038818 
	C2182.804199,2513.988281 2182.825195,2522.197510 2179.714111,2530.258301 
	C2176.739746,2537.965088 2170.695068,2542.020752 2162.881592,2542.026855 
	C2154.973145,2542.032959 2148.666748,2538.259521 2146.208496,2530.261719 
	C2144.495605,2524.690186 2143.943604,2518.489990 2144.228027,2512.636719 
	C2144.705322,2502.811035 2150.546875,2495.613037 2158.034180,2493.896484 
	C2167.354492,2491.759766 2173.173340,2494.578369 2179.725830,2505.038818 
z"/>
<path fill="#F9F9F9" opacity="1.000000" stroke="none" 
	d="
M1602.145264,2535.169434 
	C1601.984741,2525.246094 1604.211304,2521.792969 1612.272339,2520.686035 
	C1617.659302,2519.945801 1623.230469,2520.545410 1629.327393,2520.545410 
	C1629.327393,2527.998779 1629.327393,2534.108887 1629.327393,2541.474609 
	C1620.010620,2541.168457 1610.063232,2545.723145 1602.145264,2535.169434 
z"/>
</svg>