<svg version="1.1" id="Layer_1" xmlns="http://www.w3.org/2000/svg" xmlns:xlink="http://www.w3.org/1999/xlink" x="0px" y="0px"
	 width="100%" viewBox="0 0 2050 1936" enable-background="new 0 0 2050 1936" xml:space="preserve">
<path fill="#FFFFFF" opacity="1.000000" stroke="none" 
	d="
M1098.000000,1937.000000 
	C732.000000,1937.000000 366.500000,1937.000000 1.000000,1937.000000 
	C1.000000,1291.666626 1.000000,646.333313 1.000000,1.000000 
	C684.333313,1.000000 1367.666626,1.000000 2051.000000,1.000000 
	C2051.000000,646.333313 2051.000000,1291.666626 2051.000000,1937.000000 
	C1733.500000,1937.000000 1416.000000,1937.000000 1098.000000,1937.000000 
M880.223022,1786.500000 
	C880.222595,1415.528198 880.194458,1044.556519 880.339478,673.584778 
	C880.344482,660.860840 881.375916,648.036682 883.167908,635.435425 
	C886.725830,610.416138 893.281250,586.121765 903.033386,562.725159 
	C910.800232,544.091309 920.485535,526.585510 932.675049,510.480835 
	C944.477112,494.888062 958.614624,481.609344 973.394775,468.908966 
	C1008.612305,438.646942 1049.377686,419.730438 1094.468750,409.961548 
	C1131.251953,401.992554 1168.592285,398.864838 1206.211670,398.870392 
	C1341.368652,398.890350 1476.525635,398.883484 1611.682617,398.886749 
	C1613.800171,398.886810 1615.917603,398.886780 1618.258057,398.886780 
	C1618.258057,337.301758 1618.258057,276.295197 1618.258057,215.394012 
	C1180.257324,215.394012 742.708496,215.394012 305.234009,215.394012 
	C305.234009,280.502747 305.234009,345.242981 305.234009,410.127808 
	C460.278961,410.127808 614.943298,410.127808 770.071838,410.127808 
	C769.540771,411.564240 769.302612,412.505920 768.866211,413.344482 
	C760.502747,429.418213 752.013977,445.428162 743.819397,461.587311 
	C742.165894,464.847870 740.353821,466.118896 736.630737,466.127380 
	C651.338074,466.321655 566.045837,466.722260 480.753174,466.924805 
	C423.924255,467.059753 367.094696,466.947418 310.265442,466.945740 
	C308.643494,466.945679 307.021545,466.945770 305.139893,466.945770 
	C305.139893,537.157043 305.139893,606.873230 305.139893,677.095581 
	C307.386749,677.095581 309.342316,677.104065 311.297821,677.094360 
	C367.409149,676.816589 423.520203,676.411743 479.631866,676.290588 
	C545.293457,676.148865 610.955688,676.294617 676.617371,676.159058 
	C680.901245,676.150269 681.807129,677.513245 681.811768,681.548218 
	C682.021118,864.335022 682.474915,1047.121582 682.605713,1229.908325 
	C682.756958,1441.226318 682.634766,1652.544678 682.631287,1863.862793 
	C682.631226,1865.647095 682.631287,1867.431396 682.631287,1869.812256 
	C684.862976,1869.812256 686.480347,1869.812500 688.097778,1869.812378 
	C750.426636,1869.809937 812.755615,1869.762329 875.084106,1869.902954 
	C879.411133,1869.912720 880.335815,1868.513184 880.310608,1864.493896 
	C880.149841,1838.830078 880.225403,1813.164795 880.223022,1786.500000 
M1228.500000,991.908447 
	C1358.288940,991.908447 1488.078003,991.908447 1618.277222,991.908447 
	C1618.479248,989.685730 1618.782471,987.902954 1618.782959,986.120056 
	C1618.797974,932.789917 1618.837036,879.459656 1618.640015,826.130188 
	C1618.628052,822.865479 1617.359863,819.183167 1615.558105,816.425781 
	C1609.924683,807.805054 1600.751953,804.775330 1591.260620,803.480591 
	C1583.950806,802.483459 1576.436157,803.008301 1569.013916,802.807556 
	C1558.045776,802.510925 1547.078857,801.897461 1536.111206,801.891541 
	C1414.118164,801.826050 1292.125000,801.850464 1170.131958,801.854919 
	C1159.875122,801.855286 1159.778564,801.870911 1159.625610,791.401672 
	C1159.287109,768.251282 1158.945312,745.099854 1158.825073,721.947754 
	C1158.760498,709.511658 1163.742065,699.384338 1173.920410,692.010925 
	C1189.289917,680.877014 1207.147583,677.899536 1225.406372,677.182861 
	C1245.371704,676.399170 1265.372681,676.483765 1285.359009,676.288879 
	C1314.177612,676.007935 1342.997192,675.846558 1371.815918,675.575623 
	C1390.965210,675.395630 1410.113159,675.095581 1429.262085,674.880981 
	C1460.394409,674.531982 1491.526733,674.194214 1522.659302,673.879395 
	C1553.462402,673.567871 1584.265625,673.295105 1615.068604,672.979431 
	C1616.169800,672.968140 1617.268188,672.681702 1618.517212,672.502014 
	C1618.611206,671.071838 1618.751343,669.932434 1618.751587,668.793030 
	C1618.762329,607.296509 1618.732422,545.799927 1618.830078,484.303619 
	C1618.836182,480.430206 1617.771973,479.113373 1613.741455,479.122223 
	C1593.250122,479.167267 1572.758301,478.884888 1552.266357,478.774902 
	C1498.290527,478.485138 1444.314209,477.988007 1390.338379,478.012177 
	C1319.360474,478.043945 1248.382812,478.506104 1177.405029,478.757782 
	C1161.406128,478.814514 1145.400024,478.474121 1129.409790,478.848450 
	C1113.295410,479.225708 1097.068481,479.241608 1081.119507,481.240234 
	C1053.168701,484.742859 1029.370483,497.523712 1010.961670,518.829285 
	C982.697632,551.541016 969.429260,590.693665 969.113281,633.201233 
	C968.238647,750.854614 968.808838,868.518799 968.822876,986.178711 
	C968.823120,987.945984 969.015198,989.713318 969.142578,991.908325 
	C1055.584717,991.908325 1141.542358,991.908325 1228.500000,991.908447 
M1156.953247,1541.500000 
	C1157.247803,1511.206787 1157.683716,1480.913940 1157.801147,1450.620117 
	C1157.949097,1412.457764 1157.800293,1374.294189 1157.877197,1336.131470 
	C1157.888550,1330.503296 1158.227295,1324.855591 1158.777954,1319.252563 
	C1160.627686,1300.428345 1174.384155,1287.972778 1193.166870,1287.971436 
	C1332.653320,1287.960938 1472.139893,1287.958862 1611.626343,1287.954224 
	C1613.743896,1287.954102 1615.861450,1287.954224 1618.265381,1287.954224 
	C1618.425903,1285.949219 1618.644775,1284.489380 1618.645142,1283.029663 
	C1618.661865,1226.035156 1618.741943,1169.040527 1618.553955,1112.046631 
	C1618.530151,1104.816040 1616.000366,1098.087280 1610.470825,1092.847046 
	C1602.931152,1085.701660 1593.662598,1083.903687 1583.751343,1083.903809 
	C1380.604370,1083.904663 1177.457397,1083.900146 974.310425,1083.896606 
	C972.560669,1083.896606 970.810974,1083.896606 969.170044,1083.896606 
	C969.170044,1346.271973 969.170044,1607.819946 969.170044,1869.786255 
	C971.354187,1869.786255 973.159119,1869.799194 974.963806,1869.784546 
	C1010.926331,1869.492310 1046.889160,1869.240112 1082.851196,1868.886108 
	C1105.809204,1868.660034 1128.765503,1868.207275 1151.723755,1868.049316 
	C1155.335571,1868.024536 1156.150513,1866.744507 1156.174316,1863.381836 
	C1156.327271,1841.745483 1156.900879,1820.110840 1156.924316,1798.475220 
	C1157.016846,1713.150269 1156.956787,1627.825073 1156.953247,1541.500000 
z"/>
<path fill="#33A953" opacity="1.000000" stroke="none" 
	d="
M880.223145,1787.000000 
	C880.225403,1813.164795 880.149841,1838.830078 880.310608,1864.493896 
	C880.335815,1868.513184 879.411133,1869.912720 875.084106,1869.902954 
	C812.755615,1869.762329 750.426636,1869.809937 688.097778,1869.812378 
	C686.480347,1869.812500 684.862976,1869.812256 682.631287,1869.812256 
	C682.631287,1867.431396 682.631226,1865.647095 682.631287,1863.862793 
	C682.634766,1652.544678 682.756958,1441.226318 682.605713,1229.908325 
	C682.474915,1047.121582 682.021118,864.335022 681.811768,681.548218 
	C681.807129,677.513245 680.901245,676.150269 676.617371,676.159058 
	C610.955688,676.294617 545.293457,676.148865 479.631866,676.290588 
	C423.520203,676.411743 367.409149,676.816589 311.297821,677.094360 
	C309.342316,677.104065 307.386749,677.095581 305.139893,677.095581 
	C305.139893,606.873230 305.139893,537.157043 305.139893,466.945770 
	C307.021545,466.945770 308.643494,466.945679 310.265442,466.945740 
	C367.094696,466.947418 423.924255,467.059753 480.753174,466.924805 
	C566.045837,466.722260 651.338074,466.321655 736.630737,466.127380 
	C740.353821,466.118896 742.165894,464.847870 743.819397,461.587311 
	C752.013977,445.428162 760.502747,429.418213 768.866211,413.344482 
	C769.302612,412.505920 769.540771,411.564240 770.071838,410.127808 
	C614.943298,410.127808 460.278961,410.127808 305.234009,410.127808 
	C305.234009,345.242981 305.234009,280.502747 305.234009,215.394012 
	C742.708496,215.394012 1180.257324,215.394012 1618.258057,215.394012 
	C1618.258057,276.295197 1618.258057,337.301758 1618.258057,398.886780 
	C1615.917603,398.886780 1613.800171,398.886810 1611.682617,398.886749 
	C1476.525635,398.883484 1341.368652,398.890350 1206.211670,398.870392 
	C1168.592285,398.864838 1131.251953,401.992554 1094.468750,409.961548 
	C1049.377686,419.730438 1008.612305,438.646942 973.394775,468.908966 
	C958.614624,481.609344 944.477112,494.888062 932.675049,510.480835 
	C920.485535,526.585510 910.800232,544.091309 903.033386,562.725159 
	C893.281250,586.121765 886.725830,610.416138 883.167908,635.435425 
	C881.375916,648.036682 880.344482,660.860840 880.339478,673.584778 
	C880.194458,1044.556519 880.222595,1415.528198 880.223145,1787.000000 
z"/>
<path fill="#FCBC06" opacity="1.000000" stroke="none" 
	d="
M1228.000000,991.908386 
	C1141.542358,991.908325 1055.584717,991.908325 969.142578,991.908325 
	C969.015198,989.713318 968.823120,987.945984 968.822876,986.178711 
	C968.808838,868.518799 968.238647,750.854614 969.113281,633.201233 
	C969.429260,590.693665 982.697632,551.541016 1010.961670,518.829285 
	C1029.370483,497.523712 1053.168701,484.742859 1081.119507,481.240234 
	C1097.068481,479.241608 1113.295410,479.225708 1129.409790,478.848450 
	C1145.400024,478.474121 1161.406128,478.814514 1177.405029,478.757782 
	C1248.382812,478.506104 1319.360474,478.043945 1390.338379,478.012177 
	C1444.314209,477.988007 1498.290527,478.485138 1552.266357,478.774902 
	C1572.758301,478.884888 1593.250122,479.167267 1613.741455,479.122223 
	C1617.771973,479.113373 1618.836182,480.430206 1618.830078,484.303619 
	C1618.732422,545.799927 1618.762329,607.296509 1618.751587,668.793030 
	C1618.751343,669.932434 1618.611206,671.071838 1618.517212,672.502014 
	C1617.268188,672.681702 1616.169800,672.968140 1615.068604,672.979431 
	C1584.265625,673.295105 1553.462402,673.567871 1522.659302,673.879395 
	C1491.526733,674.194214 1460.394409,674.531982 1429.262085,674.880981 
	C1410.113159,675.095581 1390.965210,675.395630 1371.815918,675.575623 
	C1342.997192,675.846558 1314.177612,676.007935 1285.359009,676.288879 
	C1265.372681,676.483765 1245.371704,676.399170 1225.406372,677.182861 
	C1207.147583,677.899536 1189.289917,680.877014 1173.920410,692.010925 
	C1163.742065,699.384338 1158.760498,709.511658 1158.825073,721.947754 
	C1158.945312,745.099854 1159.287109,768.251282 1159.625610,791.401672 
	C1159.778564,801.870911 1159.875122,801.855286 1170.131958,801.854919 
	C1292.125000,801.850464 1414.118164,801.826050 1536.111206,801.891541 
	C1547.078857,801.897461 1558.045776,802.510925 1569.013916,802.807556 
	C1576.436157,803.008301 1583.950806,802.483459 1591.260620,803.480591 
	C1600.751953,804.775330 1609.924683,807.805054 1615.558105,816.425781 
	C1617.359863,819.183167 1618.628052,822.865479 1618.640015,826.130188 
	C1618.837036,879.459656 1618.797974,932.789917 1618.782959,986.120056 
	C1618.782471,987.902954 1618.479248,989.685730 1618.277222,991.908447 
	C1488.078003,991.908447 1358.288940,991.908447 1228.000000,991.908386 
z"/>
<path fill="#EC4236" opacity="1.000000" stroke="none" 
	d="
M1156.953247,1542.000000 
	C1156.956787,1627.825073 1157.016846,1713.150269 1156.924316,1798.475220 
	C1156.900879,1820.110840 1156.327271,1841.745483 1156.174316,1863.381836 
	C1156.150513,1866.744507 1155.335571,1868.024536 1151.723755,1868.049316 
	C1128.765503,1868.207275 1105.809204,1868.660034 1082.851196,1868.886108 
	C1046.889160,1869.240112 1010.926331,1869.492310 974.963806,1869.784546 
	C973.159119,1869.799194 971.354187,1869.786255 969.170044,1869.786255 
	C969.170044,1607.819946 969.170044,1346.271973 969.170044,1083.896606 
	C970.810974,1083.896606 972.560669,1083.896606 974.310425,1083.896606 
	C1177.457397,1083.900146 1380.604370,1083.904663 1583.751343,1083.903809 
	C1593.662598,1083.903687 1602.931152,1085.701660 1610.470825,1092.847046 
	C1616.000366,1098.087280 1618.530151,1104.816040 1618.553955,1112.046631 
	C1618.741943,1169.040527 1618.661865,1226.035156 1618.645142,1283.029663 
	C1618.644775,1284.489380 1618.425903,1285.949219 1618.265381,1287.954224 
	C1615.861450,1287.954224 1613.743896,1287.954102 1611.626343,1287.954224 
	C1472.139893,1287.958862 1332.653320,1287.960938 1193.166870,1287.971436 
	C1174.384155,1287.972778 1160.627686,1300.428345 1158.777954,1319.252563 
	C1158.227295,1324.855591 1157.888550,1330.503296 1157.877197,1336.131470 
	C1157.800293,1374.294189 1157.949097,1412.457764 1157.801147,1450.620117 
	C1157.683716,1480.913940 1157.247803,1511.206787 1156.953247,1542.000000 
z"/>
</svg>