<svg version="1.1" id="Layer_1" xmlns="http://www.w3.org/2000/svg" xmlns:xlink="http://www.w3.org/1999/xlink" x="0px" y="0px"
	 width="100%" viewBox="0 0 3508 2959" enable-background="new 0 0 3508 2959" xml:space="preserve">
<path fill="#FFFFFF" opacity="1.000000" stroke="none" 
	d="
M2416.000000,2962.000000 
	C1610.666870,2962.000000 806.333801,2962.000000 2.000539,2962.000000 
	C2.000360,1975.333862 2.000360,988.667725 2.000180,2.001202 
	C1171.332397,2.000801 2340.664795,2.000801 3509.998047,2.000401 
	C3509.998535,988.665527 3509.998535,1975.331055 3509.999268,2961.998291 
	C3145.666748,2962.000000 2781.333252,2962.000000 2416.000000,2962.000000 
M1411.000000,433.516510 
	C1317.117310,433.516510 1223.234497,433.516510 1129.031738,433.516510 
	C1129.031738,499.040375 1129.031738,563.459778 1129.031738,628.554688 
	C1284.162354,628.554688 1438.569580,628.554688 1594.209595,628.554688 
	C1584.193115,647.760437 1574.719360,665.925232 1565.177368,684.221130 
	C1561.213501,684.221130 1557.897949,684.221130 1554.582397,684.221130 
	C1523.920166,684.221130 1493.257690,684.136169 1462.595703,684.236511 
	C1354.313232,684.591003 1246.031006,685.004395 1137.748779,685.428284 
	C1134.870483,685.439575 1131.993774,685.826172 1129.276001,686.026062 
	C1127.316162,700.814514 1127.935425,888.058105 1130.009399,895.527771 
	C1254.922485,896.646484 1379.995361,892.889587 1506.305908,894.925415 
	C1506.305908,1293.299072 1506.305908,1690.395996 1506.305908,2087.583984 
	C1572.744385,2087.583984 1637.921387,2087.583984 1704.049561,2087.583984 
	C1704.049561,2082.831787 1704.049561,2078.577148 1704.049561,2074.322266 
	C1704.049561,1683.045654 1704.060547,1291.769043 1704.013550,900.492493 
	C1704.011475,882.821045 1704.934448,865.284424 1707.983032,847.835083 
	C1717.855591,791.326599 1739.310791,740.861206 1781.962524,700.699097 
	C1814.800171,669.778503 1852.072144,646.864929 1895.455933,634.224121 
	C1935.666504,622.507874 1976.929199,617.522644 2018.630737,617.412048 
	C2155.610107,617.048706 2292.590576,617.275940 2429.570801,617.276184 
	C2433.489746,617.276184 2437.408691,617.276184 2441.139404,617.276184 
	C2443.167480,605.102966 2442.685059,440.937317 2440.652100,433.516296 
	C2098.188232,433.516296 1755.594116,433.516296 1411.000000,433.516510 
M2165.000000,1019.939331 
	C2105.352295,1019.824280 2045.704712,1019.709900 1986.057007,1019.570923 
	C1985.794434,1019.570312 1985.512817,1019.239502 1985.275757,1019.023621 
	C1985.030518,1018.800110 1984.828979,1018.528503 1983.097900,1016.562805 
	C1982.861450,991.423096 1982.095459,964.483582 1982.580566,937.566650 
	C1982.808228,924.937439 1989.519775,914.920044 2000.548584,908.122253 
	C2012.433838,900.796570 2025.462646,896.783081 2039.229370,896.159546 
	C2062.824463,895.091003 2086.452881,894.612244 2110.072998,894.274719 
	C2159.352783,893.570496 2208.635254,893.029236 2257.918213,892.594116 
	C2297.232422,892.247070 2336.549072,892.194336 2375.864258,891.936218 
	C2395.514648,891.807251 2415.164551,891.533875 2434.813721,891.260071 
	C2437.067627,891.228638 2439.315674,890.772888 2441.731934,890.494873 
	C2441.731934,826.199829 2441.731934,762.373535 2441.731934,698.237305 
	C2439.936279,697.994263 2438.673584,697.694275 2437.405762,697.670898 
	C2413.449219,697.228455 2389.493408,696.594788 2365.534668,696.449097 
	C2317.215820,696.155396 2268.894043,695.872131 2220.575439,696.048950 
	C2120.635986,696.414673 2020.694214,696.749268 1920.760986,697.807922 
	C1884.976562,698.187012 1854.841309,712.458435 1831.933960,740.459778 
	C1805.103882,773.256409 1792.924072,811.857178 1792.607056,853.361572 
	C1791.723511,969.002563 1792.295166,1084.654663 1792.313721,1200.302368 
	C1792.314209,1203.215942 1792.565796,1206.129395 1792.716675,1209.398193 
	C2009.421143,1209.398193 2225.502686,1209.398193 2441.801758,1209.398193 
	C2442.008789,1207.545166 2442.277100,1206.263062 2442.277588,1204.980957 
	C2442.302979,1151.656372 2442.237061,1098.331665 2442.385010,1045.007568 
	C2442.405762,1037.525391 2439.452148,1031.881226 2433.258057,1028.453125 
	C2428.104492,1025.601074 2422.412598,1022.665710 2416.716064,1022.061890 
	C2403.208252,1020.630188 2389.557129,1020.061035 2375.961914,1020.025452 
	C2306.308350,1019.843018 2236.654053,1019.939941 2165.000000,1019.939331 
M1849.000000,1301.997070 
	C1830.429443,1301.997070 1811.859009,1301.997070 1792.908936,1301.997070 
	C1792.908936,1564.391602 1792.908936,1825.782349 1792.908936,2087.572021 
	C1795.754517,2087.720459 1798.033325,2087.950928 1800.311157,2087.941162 
	C1851.617310,2087.719727 1902.923828,2087.548584 1954.228638,2087.153320 
	C1962.711548,2087.088135 1971.186646,2086.018799 1980.592773,2085.347412 
	C1980.592773,2061.188965 1980.543945,2037.894409 1980.600464,2014.599976 
	C1980.976929,1859.335815 1981.375854,1704.071655 1981.767334,1548.807495 
	C1981.771484,1547.141235 1981.568970,1545.443848 1981.815308,1543.814453 
	C1982.557983,1538.901123 1982.979248,1533.862183 1984.425293,1529.148071 
	C1987.663208,1518.594360 1994.681396,1511.223999 2005.370483,1508.184570 
	C2010.394165,1506.756104 2015.811890,1506.135254 2021.052002,1506.131226 
	C2157.354736,1506.024170 2293.657715,1506.046631 2429.960449,1506.046631 
	C2433.849121,1506.046631 2437.737793,1506.046509 2442.278320,1506.046509 
	C2442.278320,1502.556885 2442.278320,1500.282593 2442.278320,1498.008301 
	C2442.279541,1443.020508 2442.281006,1388.032837 2442.281738,1333.045044 
	C2442.281738,1331.712036 2442.347656,1330.374146 2442.257568,1329.046875 
	C2441.418945,1316.701050 2434.551514,1307.477051 2422.588135,1304.256592 
	C2416.583252,1302.640259 2410.128174,1302.089111 2403.876465,1302.085449 
	C2219.584229,1301.976440 2035.292114,1301.997192 1849.000000,1301.997070 
M2750.489746,2218.512451 
	C2738.740723,2207.115234 2724.750000,2199.906250 2709.029297,2195.537598 
	C2684.504150,2188.722168 2659.592773,2189.282471 2634.617920,2191.115723 
	C2626.077148,2191.742676 2617.606445,2193.323486 2608.782227,2194.511719 
	C2608.782227,2259.218506 2608.782227,2323.003174 2608.782227,2387.498291 
	C2617.854004,2388.677246 2626.363037,2390.112305 2634.931885,2390.833008 
	C2657.573242,2392.737061 2680.204834,2393.203125 2702.538086,2387.915771 
	C2739.437500,2379.179443 2764.221436,2357.541016 2773.293945,2319.996094 
	C2777.483154,2302.660645 2777.289062,2284.997559 2774.483643,2267.376221 
	C2771.577393,2249.121094 2764.247314,2233.019043 2750.489746,2218.512451 
M902.148743,2297.187988 
	C934.171082,2268.272461 926.147949,2216.994385 886.764160,2199.613770 
	C881.324097,2197.212891 875.546509,2195.345459 869.743408,2194.038330 
	C843.014343,2188.018311 816.146790,2189.655273 789.295959,2193.228027 
	C785.756104,2193.699219 782.278076,2194.635254 778.738098,2195.362549 
	C778.738098,2260.521729 778.738098,2324.948730 778.738098,2389.477051 
	C790.786987,2389.477051 802.218445,2389.477051 814.562317,2389.477051 
	C814.562317,2364.598389 814.562317,2340.438721 814.562317,2315.522705 
	C822.427856,2315.522705 829.424561,2316.004150 836.321106,2315.379395 
	C842.489014,2314.821045 846.230042,2317.211914 849.479797,2322.103271 
	C856.661926,2332.913330 864.462585,2343.317627 871.498657,2354.218018 
	C879.047241,2365.912598 886.008850,2377.985840 893.060486,2389.619629 
	C906.311646,2389.619629 919.112244,2389.619629 933.048157,2389.619629 
	C918.973145,2360.171387 901.549255,2334.049072 882.375366,2309.145264 
	C889.045166,2305.182617 895.028564,2301.627686 902.148743,2297.187988 
M2223.000000,2191.979248 
	C2196.059814,2191.979248 2169.119873,2191.979248 2141.687988,2191.979248 
	C2141.687988,2258.255615 2141.687988,2323.766113 2141.687988,2389.456055 
	C2186.348877,2389.456055 2230.502441,2389.456055 2274.878418,2389.456055 
	C2274.878418,2379.122070 2274.878418,2369.372314 2274.878418,2358.649414 
	C2242.328613,2358.649414 2210.486084,2358.649414 2178.860107,2358.649414 
	C2176.718994,2347.878906 2176.964600,2310.022217 2179.210938,2301.923340 
	C2205.248047,2301.923340 2231.482910,2301.923340 2258.072754,2301.923340 
	C2258.072754,2291.700195 2258.072754,2282.161621 2258.072754,2271.650391 
	C2231.073486,2271.650391 2204.554199,2271.650391 2178.109863,2271.650391 
	C2178.109863,2255.169678 2178.109863,2239.674072 2178.109863,2223.294922 
	C2208.302246,2223.294922 2237.828369,2223.294922 2267.954590,2223.294922 
	C2267.954590,2212.556396 2267.954590,2202.711670 2267.954590,2191.979248 
	C2253.514893,2191.979248 2239.257324,2191.979248 2223.000000,2191.979248 
M1688.741211,2210.056885 
	C1685.944946,2204.080566 1683.148804,2198.104004 1680.508423,2192.460938 
	C1668.424194,2192.460938 1657.204834,2192.460938 1645.694458,2192.460938 
	C1615.444580,2256.554932 1590.609863,2322.419434 1567.289551,2389.517578 
	C1580.424561,2389.517578 1592.298706,2389.517578 1604.496216,2389.517578 
	C1610.039917,2373.939209 1615.463379,2358.698975 1620.803467,2343.692871 
	C1649.104736,2343.692871 1676.359985,2343.692871 1704.106201,2343.692871 
	C1709.725586,2359.143555 1715.266602,2374.378418 1720.954956,2390.019043 
	C1731.997925,2390.019043 1742.633911,2390.040527 1753.269531,2389.995361 
	C1754.843384,2389.988770 1756.415894,2389.666504 1759.274780,2389.345947 
	C1738.065918,2328.695557 1715.479126,2269.383301 1688.741211,2210.056885 
M1023.108948,2362.091797 
	C1000.416443,2361.120361 987.832703,2350.619873 983.798401,2328.663818 
	C982.604187,2322.164795 982.161316,2315.448486 982.131287,2308.828369 
	C981.972717,2273.860107 982.055969,2238.890869 982.055359,2203.921875 
	C982.055298,2200.345703 982.055359,2196.769287 982.055359,2192.732910 
	C969.621460,2192.732910 958.190491,2192.732910 946.511597,2192.732910 
	C946.268372,2194.567139 945.952271,2195.840332 945.952087,2197.113525 
	C945.946167,2238.742920 945.728943,2280.374756 946.190552,2321.999268 
	C946.284973,2330.512695 948.013000,2339.291992 950.597656,2347.438232 
	C957.393127,2368.855957 971.861511,2383.255127 993.399841,2390.015625 
	C1010.257507,2395.307373 1027.490356,2395.523438 1044.752197,2392.256348 
	C1074.369629,2386.650879 1092.542725,2368.788818 1099.558105,2339.721436 
	C1101.258667,2332.675049 1101.958130,2325.233643 1102.002075,2317.967041 
	C1102.238770,2278.670166 1102.139893,2239.371094 1102.096313,2200.072754 
	C1102.093506,2197.564453 1101.581421,2195.056885 1101.321167,2192.684570 
	C1089.324341,2192.684570 1078.138550,2192.684570 1065.991211,2192.684570 
	C1065.991211,2196.798340 1065.991821,2200.378174 1065.991333,2203.957764 
	C1065.986084,2239.259766 1066.048096,2274.561768 1065.909546,2309.863281 
	C1065.886108,2315.821777 1065.475952,2321.863037 1064.424194,2327.718750 
	C1060.335938,2350.480713 1048.005615,2361.041260 1023.108948,2362.091797 
M1813.314697,2236.364990 
	C1822.366699,2226.752197 1833.549072,2221.289551 1846.586304,2219.838135 
	C1862.756714,2218.037842 1878.483032,2220.031006 1893.597046,2226.246094 
	C1896.627441,2227.492432 1899.656006,2228.743408 1903.590820,2230.365479 
	C1907.066406,2220.739014 1910.389526,2211.534912 1914.043091,2201.415771 
	C1906.787842,2198.331299 1900.593262,2195.038330 1894.007324,2193.028320 
	C1877.978271,2188.137451 1861.634155,2186.023438 1844.733643,2187.608154 
	C1802.942749,2191.525879 1772.055176,2217.404541 1761.740479,2258.339111 
	C1755.410156,2283.460938 1756.080078,2308.662109 1764.082642,2333.267578 
	C1774.955566,2366.698242 1798.010376,2386.530273 1832.907959,2392.256104 
	C1856.748047,2396.167236 1880.031006,2393.729004 1902.804688,2386.006348 
	C1907.116699,2384.544189 1911.177124,2382.340088 1915.979980,2380.198975 
	C1912.619385,2370.150635 1909.527222,2360.905029 1906.485596,2351.810303 
	C1896.597046,2354.841309 1888.205933,2358.241699 1879.484375,2359.854492 
	C1870.718140,2361.475586 1861.612549,2361.957275 1852.673462,2361.816406 
	C1826.725098,2361.408691 1807.816772,2346.913818 1800.030151,2322.083008 
	C1795.050293,2306.202881 1794.576050,2289.909912 1796.741943,2273.604004 
	C1798.521484,2260.208252 1803.120239,2247.757324 1813.314697,2236.364990 
M1460.146851,2283.000000 
	C1460.146851,2318.479492 1460.146851,2353.958740 1460.146851,2389.527344 
	C1472.768433,2389.527344 1483.955078,2389.527344 1496.275391,2389.527344 
	C1496.275391,2360.963867 1496.275391,2332.878418 1496.275391,2303.867920 
	C1523.206543,2303.867920 1549.014038,2303.867920 1575.047241,2303.867920 
	C1575.047241,2293.152344 1575.047241,2283.406250 1575.047241,2272.516113 
	C1548.601318,2272.516113 1522.820923,2272.516113 1496.848145,2272.516113 
	C1496.848145,2255.569580 1496.848145,2239.786133 1496.848145,2222.943848 
	C1526.701538,2222.943848 1555.859985,2222.943848 1585.722534,2222.943848 
	C1585.722534,2216.929199 1585.722412,2211.981689 1585.722412,2207.034180 
	C1585.722412,2202.181641 1585.722534,2197.328857 1585.722534,2192.632812 
	C1543.134155,2192.632812 1502.014648,2192.632812 1460.146973,2192.632812 
	C1460.146973,2222.524658 1460.146973,2251.762207 1460.146851,2283.000000 
M1314.040039,2272.954834 
	C1312.749634,2274.721191 1311.459106,2276.487549 1309.523560,2279.136963 
	C1291.734863,2250.588867 1276.319214,2222.039062 1262.579956,2192.129150 
	C1255.533203,2192.129150 1248.910156,2192.094482 1242.287842,2192.138428 
	C1235.536987,2192.183350 1228.786743,2192.305420 1220.743530,2192.410400 
	C1223.142212,2197.209717 1224.573486,2200.526855 1226.382446,2203.623291 
	C1246.184814,2237.515625 1265.944702,2271.434326 1285.995605,2305.179443 
	C1289.165894,2310.514893 1291.092285,2315.612549 1290.988770,2321.939453 
	C1290.667603,2341.576660 1290.849976,2361.222412 1290.892578,2380.864990 
	C1290.898926,2383.770264 1291.205200,2386.675293 1291.405396,2390.146973 
	C1303.585815,2389.973389 1315.047729,2390.873047 1327.137085,2389.453613 
	C1327.137085,2385.405273 1327.137085,2382.119385 1327.137085,2378.833740 
	C1327.137085,2360.189941 1327.422729,2341.539795 1326.995972,2322.905762 
	C1326.826660,2315.520020 1329.097534,2309.585693 1332.800171,2303.371582 
	C1352.722290,2269.936768 1372.268188,2236.277832 1391.879395,2202.658447 
	C1393.637451,2199.644775 1394.933105,2196.361572 1396.767090,2192.526855 
	C1382.785156,2192.526855 1370.229614,2192.526855 1358.730957,2192.526855 
	C1343.796753,2219.425537 1329.283447,2245.565918 1314.040039,2272.954834 
M2455.083496,2191.979980 
	C2448.911865,2192.060303 2442.740479,2192.140625 2436.662598,2192.219727 
	C2436.662598,2203.058838 2436.662598,2212.588379 2436.662598,2223.484375 
	C2456.918945,2223.484375 2476.691650,2223.484375 2497.299805,2223.484375 
	C2497.299805,2279.695557 2497.299805,2334.538574 2497.299805,2389.507812 
	C2509.715820,2389.507812 2521.232422,2389.507812 2533.957520,2389.507812 
	C2533.957520,2333.932861 2533.957520,2278.871582 2533.957520,2222.834961 
	C2554.657959,2222.834961 2574.160889,2222.834961 2593.556152,2222.834961 
	C2593.556152,2212.040039 2593.556152,2202.260254 2593.556152,2191.979980 
	C2547.566895,2191.979980 2502.312012,2191.979980 2455.083496,2191.979980 
M765.644897,2210.802246 
	C765.644897,2204.901367 765.644897,2199.000488 765.644897,2192.631348 
	C712.429199,2192.631348 660.330933,2192.631348 607.423401,2192.631348 
	C607.280579,2203.005859 606.812683,2213.061279 607.774536,2224.025391 
	C628.507690,2224.025391 647.983582,2224.025391 668.315796,2224.025391 
	C668.315796,2279.766113 668.315796,2334.531494 668.315796,2389.616455 
	C680.670532,2389.616455 692.116943,2389.616455 704.451172,2389.616455 
	C704.451172,2334.263184 704.451172,2279.490967 704.451172,2223.549072 
	C725.078674,2223.549072 744.856140,2223.549072 765.644836,2223.549072 
	C765.644836,2219.143799 765.644836,2215.907715 765.644897,2210.802246 
M2090.999023,2390.031982 
	C2103.256104,2390.031982 2115.513428,2390.031982 2127.918945,2390.031982 
	C2127.918945,2379.271240 2127.918945,2369.422852 2127.918945,2358.752441 
	C2117.704834,2358.752441 2108.091553,2358.752197 2098.478271,2358.752197 
	C2088.480225,2358.752197 2078.480469,2358.860352 2068.484375,2358.721191 
	C2058.993896,2358.588867 2049.434570,2359.372559 2039.047119,2358.043945 
	C2039.047119,2302.180420 2039.047119,2247.348633 2039.047119,2192.331543 
	C2026.749756,2192.331543 2015.482300,2192.331543 2003.698730,2192.331543 
	C2003.698730,2258.208984 2003.698730,2323.729736 2003.698730,2390.031982 
	C2032.449707,2390.031982 2060.724609,2390.031982 2090.999023,2390.031982 
M2347.206299,2288.999756 
	C2347.206299,2322.494873 2347.206299,2355.989990 2347.206299,2389.489990 
	C2389.593994,2389.489990 2430.712158,2389.489990 2471.824707,2389.489990 
	C2471.824707,2379.093018 2471.824707,2369.252441 2471.824707,2358.590820 
	C2442.340576,2358.590820 2413.500000,2358.590820 2383.444336,2358.590820 
	C2383.444336,2302.732422 2383.444336,2247.700928 2383.444336,2192.621094 
	C2370.761719,2192.621094 2359.324707,2192.621094 2347.208008,2192.621094 
	C2347.208008,2224.506592 2347.208008,2255.752930 2347.206299,2288.999756 
M1220.999146,2390.198975 
	C1233.557007,2390.198975 1246.114746,2390.198975 1258.988525,2390.198975 
	C1258.988525,2379.458252 1258.988525,2369.748535 1258.988525,2358.865723 
	C1229.207275,2358.865723 1200.112793,2358.865723 1170.170166,2358.865723 
	C1170.170166,2346.769287 1170.170166,2335.840576 1170.170166,2324.912109 
	C1170.170166,2313.927734 1170.170166,2302.943115 1170.170166,2291.958740 
	C1170.170166,2280.641357 1170.170166,2269.323730 1170.170166,2258.006348 
	C1170.170166,2247.021973 1170.216309,2236.037109 1170.157104,2225.052979 
	C1170.098877,2214.231201 1170.420044,2203.386719 1169.950439,2192.697266 
	C1157.422241,2192.697266 1146.248535,2192.697266 1134.729614,2192.697266 
	C1134.729614,2258.631592 1134.729614,2323.997070 1134.729614,2390.199219 
	C1163.212891,2390.199219 1191.106323,2390.199219 1220.999146,2390.198975 
M1970.134155,2223.006836 
	C1970.134155,2212.838135 1970.134155,2202.669678 1970.134155,2192.510498 
	C1957.482300,2192.510498 1946.308716,2192.510498 1934.718750,2192.510498 
	C1934.718750,2258.396240 1934.718750,2323.751221 1934.718750,2389.322754 
	C1946.715210,2389.322754 1958.135376,2389.322754 1970.134277,2389.322754 
	C1970.134277,2334.083496 1970.134277,2279.543457 1970.134155,2223.006836 
M2830.246826,2372.768555 
	C2830.136230,2370.776123 2830.263428,2368.736084 2829.876221,2366.798828 
	C2827.641602,2355.621094 2817.235107,2348.059570 2805.617920,2349.046143 
	C2793.813965,2350.048584 2785.151123,2358.867920 2784.539795,2370.505127 
	C2783.928467,2382.138428 2791.880859,2391.882812 2803.516846,2393.759033 
	C2816.664062,2395.878906 2826.957764,2388.412354 2830.246826,2372.768555 
z"/>
<path fill="#33A953" opacity="1.000000" stroke="none" 
	d="
M1412.000000,433.516418 
	C1755.594116,433.516296 2098.188232,433.516296 2440.652100,433.516296 
	C2442.685059,440.937317 2443.167480,605.102966 2441.139404,617.276184 
	C2437.408691,617.276184 2433.489746,617.276184 2429.570801,617.276184 
	C2292.590576,617.275940 2155.610107,617.048706 2018.630737,617.412048 
	C1976.929199,617.522644 1935.666504,622.507874 1895.455933,634.224121 
	C1852.072144,646.864929 1814.800171,669.778503 1781.962524,700.699097 
	C1739.310791,740.861206 1717.855591,791.326599 1707.983032,847.835083 
	C1704.934448,865.284424 1704.011475,882.821045 1704.013550,900.492493 
	C1704.060547,1291.769043 1704.049561,1683.045654 1704.049561,2074.322266 
	C1704.049561,2078.577148 1704.049561,2082.831787 1704.049561,2087.583984 
	C1637.921387,2087.583984 1572.744385,2087.583984 1506.305908,2087.583984 
	C1506.305908,1690.395996 1506.305908,1293.299072 1506.305908,894.925415 
	C1379.995361,892.889587 1254.922485,896.646484 1130.009399,895.527771 
	C1127.935425,888.058105 1127.316162,700.814514 1129.276001,686.026062 
	C1131.993774,685.826172 1134.870483,685.439575 1137.748779,685.428284 
	C1246.031006,685.004395 1354.313232,684.591003 1462.595703,684.236511 
	C1493.257690,684.136169 1523.920166,684.221130 1554.582397,684.221130 
	C1557.897949,684.221130 1561.213501,684.221130 1565.177368,684.221130 
	C1574.719360,665.925232 1584.193115,647.760437 1594.209595,628.554688 
	C1438.569580,628.554688 1284.162354,628.554688 1129.031738,628.554688 
	C1129.031738,563.459778 1129.031738,499.040375 1129.031738,433.516510 
	C1223.234497,433.516510 1317.117310,433.516510 1412.000000,433.516418 
z"/>
<path fill="#FCBC06" opacity="1.000000" stroke="none" 
	d="
M2166.000000,1019.939331 
	C2236.654053,1019.939941 2306.308350,1019.843018 2375.961914,1020.025452 
	C2389.557129,1020.061035 2403.208252,1020.630188 2416.716064,1022.061890 
	C2422.412598,1022.665710 2428.104492,1025.601074 2433.258057,1028.453125 
	C2439.452148,1031.881226 2442.405762,1037.525391 2442.385010,1045.007568 
	C2442.237061,1098.331665 2442.302979,1151.656372 2442.277588,1204.980957 
	C2442.277100,1206.263062 2442.008789,1207.545166 2441.801758,1209.398193 
	C2225.502686,1209.398193 2009.421143,1209.398193 1792.716675,1209.398193 
	C1792.565796,1206.129395 1792.314209,1203.215942 1792.313721,1200.302368 
	C1792.295166,1084.654663 1791.723511,969.002563 1792.607056,853.361572 
	C1792.924072,811.857178 1805.103882,773.256409 1831.933960,740.459778 
	C1854.841309,712.458435 1884.976562,698.187012 1920.760986,697.807922 
	C2020.694214,696.749268 2120.635986,696.414673 2220.575439,696.048950 
	C2268.894043,695.872131 2317.215820,696.155396 2365.534668,696.449097 
	C2389.493408,696.594788 2413.449219,697.228455 2437.405762,697.670898 
	C2438.673584,697.694275 2439.936279,697.994263 2441.731934,698.237305 
	C2441.731934,762.373535 2441.731934,826.199829 2441.731934,890.494873 
	C2439.315674,890.772888 2437.067627,891.228638 2434.813721,891.260071 
	C2415.164551,891.533875 2395.514648,891.807251 2375.864258,891.936218 
	C2336.549072,892.194336 2297.232422,892.247070 2257.918213,892.594116 
	C2208.635254,893.029236 2159.352783,893.570496 2110.072998,894.274719 
	C2086.452881,894.612244 2062.824463,895.091003 2039.229370,896.159546 
	C2025.462646,896.783081 2012.433838,900.796570 2000.548584,908.122253 
	C1989.519775,914.920044 1982.808228,924.937439 1982.580566,937.566650 
	C1982.095459,964.483582 1982.861450,991.423096 1983.097900,1016.562805 
	C1984.828979,1018.528503 1985.030518,1018.800110 1985.275757,1019.023621 
	C1985.512817,1019.239502 1985.794434,1019.570312 1986.057007,1019.570923 
	C2045.704712,1019.709900 2105.352295,1019.824280 2166.000000,1019.939331 
z"/>
<path fill="#EC4235" opacity="1.000000" stroke="none" 
	d="
M1850.000000,1301.997070 
	C2035.292114,1301.997192 2219.584229,1301.976440 2403.876465,1302.085449 
	C2410.128174,1302.089111 2416.583252,1302.640259 2422.588135,1304.256592 
	C2434.551514,1307.477051 2441.418945,1316.701050 2442.257568,1329.046875 
	C2442.347656,1330.374146 2442.281738,1331.712036 2442.281738,1333.045044 
	C2442.281006,1388.032837 2442.279541,1443.020508 2442.278320,1498.008301 
	C2442.278320,1500.282593 2442.278320,1502.556885 2442.278320,1506.046509 
	C2437.737793,1506.046509 2433.849121,1506.046631 2429.960449,1506.046631 
	C2293.657715,1506.046631 2157.354736,1506.024170 2021.052002,1506.131226 
	C2015.811890,1506.135254 2010.394165,1506.756104 2005.370483,1508.184570 
	C1994.681396,1511.223999 1987.663208,1518.594360 1984.425293,1529.148071 
	C1982.979248,1533.862183 1982.557983,1538.901123 1981.815308,1543.814453 
	C1981.568970,1545.443848 1981.771484,1547.141235 1981.767334,1548.807495 
	C1981.375854,1704.071655 1980.976929,1859.335815 1980.600464,2014.599976 
	C1980.543945,2037.894409 1980.592773,2061.188965 1980.592773,2085.347412 
	C1971.186646,2086.018799 1962.711548,2087.088135 1954.228638,2087.153320 
	C1902.923828,2087.548584 1851.617310,2087.719727 1800.311157,2087.941162 
	C1798.033325,2087.950928 1795.754517,2087.720459 1792.908936,2087.572021 
	C1792.908936,1825.782349 1792.908936,1564.391602 1792.908936,1301.997070 
	C1811.859009,1301.997070 1830.429443,1301.997070 1850.000000,1301.997070 
z"/>
<path fill="#EC4539" opacity="1.000000" stroke="none" 
	d="
M2750.985596,2219.014160 
	C2764.247314,2233.019043 2771.577393,2249.121094 2774.483643,2267.376221 
	C2777.289062,2284.997559 2777.483154,2302.660645 2773.293945,2319.996094 
	C2764.221436,2357.541016 2739.437500,2379.179443 2702.538086,2387.915771 
	C2680.204834,2393.203125 2657.573242,2392.737061 2634.931885,2390.833008 
	C2626.363037,2390.112305 2617.854004,2388.677246 2608.782227,2387.498291 
	C2608.782227,2323.003174 2608.782227,2259.218506 2608.782227,2194.511719 
	C2617.606445,2193.323486 2626.077148,2191.742676 2634.617920,2191.115723 
	C2659.592773,2189.282471 2684.504150,2188.722168 2709.029297,2195.537598 
	C2724.750000,2199.906250 2738.740723,2207.115234 2750.985596,2219.014160 
M2726.557861,2335.369141 
	C2741.504639,2311.564209 2741.420898,2286.119385 2733.804199,2260.310791 
	C2729.360107,2245.251221 2719.394775,2234.203125 2704.746582,2227.862061 
	C2685.418457,2219.495361 2665.284424,2220.717773 2644.800293,2222.197266 
	C2644.800293,2268.475098 2644.800293,2313.920898 2644.800293,2360.080322 
	C2660.332520,2360.800781 2675.187744,2361.720215 2690.027100,2358.561035 
	C2704.598145,2355.458984 2716.767578,2348.651367 2726.557861,2335.369141 
z"/>
<path fill="#36AA56" opacity="1.000000" stroke="none" 
	d="
M901.580322,2297.630371 
	C895.028564,2301.627686 889.045166,2305.182617 882.375366,2309.145264 
	C901.549255,2334.049072 918.973145,2360.171387 933.048157,2389.619629 
	C919.112244,2389.619629 906.311646,2389.619629 893.060486,2389.619629 
	C886.008850,2377.985840 879.047241,2365.912598 871.498657,2354.218018 
	C864.462585,2343.317627 856.661926,2332.913330 849.479797,2322.103271 
	C846.230042,2317.211914 842.489014,2314.821045 836.321106,2315.379395 
	C829.424561,2316.004150 822.427856,2315.522705 814.562317,2315.522705 
	C814.562317,2340.438721 814.562317,2364.598389 814.562317,2389.477051 
	C802.218445,2389.477051 790.786987,2389.477051 778.738098,2389.477051 
	C778.738098,2324.948730 778.738098,2260.521729 778.738098,2195.362549 
	C782.278076,2194.635254 785.756104,2193.699219 789.295959,2193.228027 
	C816.146790,2189.655273 843.014343,2188.018311 869.743408,2194.038330 
	C875.546509,2195.345459 881.324097,2197.212891 886.764160,2199.613770 
	C926.147949,2216.994385 934.171082,2268.272461 901.580322,2297.630371 
M814.156250,2247.028320 
	C814.156250,2259.855225 814.156250,2272.682373 814.156250,2285.322510 
	C831.575684,2287.176758 851.686584,2286.074463 861.900085,2282.923096 
	C876.390930,2278.452148 883.340576,2269.323975 883.601929,2254.418701 
	C883.859680,2239.713135 876.952759,2229.522705 863.028870,2224.989014 
	C847.238403,2219.847412 831.106689,2221.498291 814.156372,2222.197021 
	C814.156372,2230.557129 814.156372,2237.801025 814.156250,2247.028320 
z"/>
<path fill="#FCBD0A" opacity="1.000000" stroke="none" 
	d="
M2224.000000,2191.979248 
	C2239.257324,2191.979248 2253.514893,2191.979248 2267.954590,2191.979248 
	C2267.954590,2202.711670 2267.954590,2212.556396 2267.954590,2223.294922 
	C2237.828369,2223.294922 2208.302246,2223.294922 2178.109863,2223.294922 
	C2178.109863,2239.674072 2178.109863,2255.169678 2178.109863,2271.650391 
	C2204.554199,2271.650391 2231.073486,2271.650391 2258.072754,2271.650391 
	C2258.072754,2282.161621 2258.072754,2291.700195 2258.072754,2301.923340 
	C2231.482910,2301.923340 2205.248047,2301.923340 2179.210938,2301.923340 
	C2176.964600,2310.022217 2176.718994,2347.878906 2178.860107,2358.649414 
	C2210.486084,2358.649414 2242.328613,2358.649414 2274.878418,2358.649414 
	C2274.878418,2369.372314 2274.878418,2379.122070 2274.878418,2389.456055 
	C2230.502441,2389.456055 2186.348877,2389.456055 2141.687988,2389.456055 
	C2141.687988,2323.766113 2141.687988,2258.255615 2141.687988,2191.979248 
	C2169.119873,2191.979248 2196.059814,2191.979248 2224.000000,2191.979248 
z"/>
<path fill="#FCBD0A" opacity="1.000000" stroke="none" 
	d="
M1689.099854,2210.726074 
	C1715.479126,2269.383301 1738.065918,2328.695557 1759.274780,2389.345947 
	C1756.415894,2389.666504 1754.843384,2389.988770 1753.269531,2389.995361 
	C1742.633911,2390.040527 1731.997925,2390.019043 1720.954956,2390.019043 
	C1715.266602,2374.378418 1709.725586,2359.143555 1704.106201,2343.692871 
	C1676.359985,2343.692871 1649.104736,2343.692871 1620.803467,2343.692871 
	C1615.463379,2358.698975 1610.039917,2373.939209 1604.496216,2389.517578 
	C1592.298706,2389.517578 1580.424561,2389.517578 1567.289551,2389.517578 
	C1590.609863,2322.419434 1615.444580,2256.554932 1645.694458,2192.460938 
	C1657.204834,2192.460938 1668.424194,2192.460938 1680.508423,2192.460938 
	C1683.148804,2198.104004 1685.944946,2204.080566 1689.099854,2210.726074 
M1693.650635,2310.050537 
	C1683.741333,2284.109863 1673.832031,2258.168945 1663.922729,2232.228271 
	C1663.123779,2232.245361 1662.324707,2232.262451 1661.525757,2232.279541 
	C1650.266113,2258.884521 1639.794434,2285.793457 1630.100342,2313.977051 
	C1651.074951,2313.977051 1670.686890,2314.017090 1690.297607,2313.880371 
	C1691.515381,2313.872070 1692.723511,2312.474121 1693.650635,2310.050537 
z"/>
<path fill="#36AA55" opacity="1.000000" stroke="none" 
	d="
M1023.993164,2362.091309 
	C1048.005615,2361.041260 1060.335938,2350.480713 1064.424194,2327.718750 
	C1065.475952,2321.863037 1065.886108,2315.821777 1065.909546,2309.863281 
	C1066.048096,2274.561768 1065.986084,2239.259766 1065.991333,2203.957764 
	C1065.991821,2200.378174 1065.991211,2196.798340 1065.991211,2192.684570 
	C1078.138550,2192.684570 1089.324341,2192.684570 1101.321167,2192.684570 
	C1101.581421,2195.056885 1102.093506,2197.564453 1102.096313,2200.072754 
	C1102.139893,2239.371094 1102.238770,2278.670166 1102.002075,2317.967041 
	C1101.958130,2325.233643 1101.258667,2332.675049 1099.558105,2339.721436 
	C1092.542725,2368.788818 1074.369629,2386.650879 1044.752197,2392.256348 
	C1027.490356,2395.523438 1010.257507,2395.307373 993.399841,2390.015625 
	C971.861511,2383.255127 957.393127,2368.855957 950.597656,2347.438232 
	C948.013000,2339.291992 946.284973,2330.512695 946.190552,2321.999268 
	C945.728943,2280.374756 945.946167,2238.742920 945.952087,2197.113525 
	C945.952271,2195.840332 946.268372,2194.567139 946.511597,2192.732910 
	C958.190491,2192.732910 969.621460,2192.732910 982.055359,2192.732910 
	C982.055359,2196.769287 982.055298,2200.345703 982.055359,2203.921875 
	C982.055969,2238.890869 981.972717,2273.860107 982.131287,2308.828369 
	C982.161316,2315.448486 982.604187,2322.164795 983.798401,2328.663818 
	C987.832703,2350.619873 1000.416443,2361.120361 1023.993164,2362.091309 
z"/>
<path fill="#FCBD09" opacity="1.000000" stroke="none" 
	d="
M1812.815674,2236.893799 
	C1803.120239,2247.757324 1798.521484,2260.208252 1796.741943,2273.604004 
	C1794.576050,2289.909912 1795.050293,2306.202881 1800.030151,2322.083008 
	C1807.816772,2346.913818 1826.725098,2361.408691 1852.673462,2361.816406 
	C1861.612549,2361.957275 1870.718140,2361.475586 1879.484375,2359.854492 
	C1888.205933,2358.241699 1896.597046,2354.841309 1906.485596,2351.810303 
	C1909.527222,2360.905029 1912.619385,2370.150635 1915.979980,2380.198975 
	C1911.177124,2382.340088 1907.116699,2384.544189 1902.804688,2386.006348 
	C1880.031006,2393.729004 1856.748047,2396.167236 1832.907959,2392.256104 
	C1798.010376,2386.530273 1774.955566,2366.698242 1764.082642,2333.267578 
	C1756.080078,2308.662109 1755.410156,2283.460938 1761.740479,2258.339111 
	C1772.055176,2217.404541 1802.942749,2191.525879 1844.733643,2187.608154 
	C1861.634155,2186.023438 1877.978271,2188.137451 1894.007324,2193.028320 
	C1900.593262,2195.038330 1906.787842,2198.331299 1914.043091,2201.415771 
	C1910.389526,2211.534912 1907.066406,2220.739014 1903.590820,2230.365479 
	C1899.656006,2228.743408 1896.627441,2227.492432 1893.597046,2226.246094 
	C1878.483032,2220.031006 1862.756714,2218.037842 1846.586304,2219.838135 
	C1833.549072,2221.289551 1822.366699,2226.752197 1812.815674,2236.893799 
z"/>
<path fill="#FCBD0B" opacity="1.000000" stroke="none" 
	d="
M1460.146973,2282.000000 
	C1460.146973,2251.762207 1460.146973,2222.524658 1460.146973,2192.632812 
	C1502.014648,2192.632812 1543.134155,2192.632812 1585.722534,2192.632812 
	C1585.722534,2197.328857 1585.722412,2202.181641 1585.722412,2207.034180 
	C1585.722412,2211.981689 1585.722534,2216.929199 1585.722534,2222.943848 
	C1555.859985,2222.943848 1526.701538,2222.943848 1496.848145,2222.943848 
	C1496.848145,2239.786133 1496.848145,2255.569580 1496.848145,2272.516113 
	C1522.820923,2272.516113 1548.601318,2272.516113 1575.047241,2272.516113 
	C1575.047241,2283.406250 1575.047241,2293.152344 1575.047241,2303.867920 
	C1549.014038,2303.867920 1523.206543,2303.867920 1496.275391,2303.867920 
	C1496.275391,2332.878418 1496.275391,2360.963867 1496.275391,2389.527344 
	C1483.955078,2389.527344 1472.768433,2389.527344 1460.146851,2389.527344 
	C1460.146851,2353.958740 1460.146851,2318.479492 1460.146973,2282.000000 
z"/>
<path fill="#36AA55" opacity="1.000000" stroke="none" 
	d="
M1314.405029,2272.330566 
	C1329.283447,2245.565918 1343.796753,2219.425537 1358.730957,2192.526855 
	C1370.229614,2192.526855 1382.785156,2192.526855 1396.767090,2192.526855 
	C1394.933105,2196.361572 1393.637451,2199.644775 1391.879395,2202.658447 
	C1372.268188,2236.277832 1352.722290,2269.936768 1332.800171,2303.371582 
	C1329.097534,2309.585693 1326.826660,2315.520020 1326.995972,2322.905762 
	C1327.422729,2341.539795 1327.137085,2360.189941 1327.137085,2378.833740 
	C1327.137085,2382.119385 1327.137085,2385.405273 1327.137085,2389.453613 
	C1315.047729,2390.873047 1303.585815,2389.973389 1291.405396,2390.146973 
	C1291.205200,2386.675293 1290.898926,2383.770264 1290.892578,2380.864990 
	C1290.849976,2361.222412 1290.667603,2341.576660 1290.988770,2321.939453 
	C1291.092285,2315.612549 1289.165894,2310.514893 1285.995605,2305.179443 
	C1265.944702,2271.434326 1246.184814,2237.515625 1226.382446,2203.623291 
	C1224.573486,2200.526855 1223.142212,2197.209717 1220.743530,2192.410400 
	C1228.786743,2192.305420 1235.536987,2192.183350 1242.287842,2192.138428 
	C1248.910156,2192.094482 1255.533203,2192.129150 1262.579956,2192.129150 
	C1276.319214,2222.039062 1291.734863,2250.588867 1309.523560,2279.136963 
	C1311.459106,2276.487549 1312.749634,2274.721191 1314.405029,2272.330566 
z"/>
<path fill="#EC4639" opacity="1.000000" stroke="none" 
	d="
M2456.070312,2191.979980 
	C2502.312012,2191.979980 2547.566895,2191.979980 2593.556152,2191.979980 
	C2593.556152,2202.260254 2593.556152,2212.040039 2593.556152,2222.834961 
	C2574.160889,2222.834961 2554.657959,2222.834961 2533.957520,2222.834961 
	C2533.957520,2278.871582 2533.957520,2333.932861 2533.957520,2389.507812 
	C2521.232422,2389.507812 2509.715820,2389.507812 2497.299805,2389.507812 
	C2497.299805,2334.538574 2497.299805,2279.695557 2497.299805,2223.484375 
	C2476.691650,2223.484375 2456.918945,2223.484375 2436.662598,2223.484375 
	C2436.662598,2212.588379 2436.662598,2203.058838 2436.662598,2192.219727 
	C2442.740479,2192.140625 2448.911865,2192.060303 2456.070312,2191.979980 
z"/>
<path fill="#37AA56" opacity="1.000000" stroke="none" 
	d="
M765.644897,2211.737061 
	C765.644836,2215.907715 765.644836,2219.143799 765.644836,2223.549072 
	C744.856140,2223.549072 725.078674,2223.549072 704.451172,2223.549072 
	C704.451172,2279.490967 704.451172,2334.263184 704.451172,2389.616455 
	C692.116943,2389.616455 680.670532,2389.616455 668.315796,2389.616455 
	C668.315796,2334.531494 668.315796,2279.766113 668.315796,2224.025391 
	C647.983582,2224.025391 628.507690,2224.025391 607.774536,2224.025391 
	C606.812683,2213.061279 607.280579,2203.005859 607.423401,2192.631348 
	C660.330933,2192.631348 712.429199,2192.631348 765.644897,2192.631348 
	C765.644897,2199.000488 765.644897,2204.901367 765.644897,2211.737061 
z"/>
<path fill="#FCBD0B" opacity="1.000000" stroke="none" 
	d="
M2089.999268,2390.031982 
	C2060.724609,2390.031982 2032.449707,2390.031982 2003.698730,2390.031982 
	C2003.698730,2323.729736 2003.698730,2258.208984 2003.698730,2192.331543 
	C2015.482300,2192.331543 2026.749756,2192.331543 2039.047119,2192.331543 
	C2039.047119,2247.348633 2039.047119,2302.180420 2039.047119,2358.043945 
	C2049.434570,2359.372559 2058.993896,2358.588867 2068.484375,2358.721191 
	C2078.480469,2358.860352 2088.480225,2358.752197 2098.478271,2358.752197 
	C2108.091553,2358.752197 2117.704834,2358.752441 2127.918945,2358.752441 
	C2127.918945,2369.422852 2127.918945,2379.271240 2127.918945,2390.031982 
	C2115.513428,2390.031982 2103.256104,2390.031982 2089.999268,2390.031982 
z"/>
<path fill="#EC4639" opacity="1.000000" stroke="none" 
	d="
M2347.207031,2287.999512 
	C2347.208008,2255.752930 2347.208008,2224.506592 2347.208008,2192.621094 
	C2359.324707,2192.621094 2370.761719,2192.621094 2383.444336,2192.621094 
	C2383.444336,2247.700928 2383.444336,2302.732422 2383.444336,2358.590820 
	C2413.500000,2358.590820 2442.340576,2358.590820 2471.824707,2358.590820 
	C2471.824707,2369.252441 2471.824707,2379.093018 2471.824707,2389.489990 
	C2430.712158,2389.489990 2389.593994,2389.489990 2347.206299,2389.489990 
	C2347.206299,2355.989990 2347.206299,2322.494873 2347.207031,2287.999512 
z"/>
<path fill="#35AA55" opacity="1.000000" stroke="none" 
	d="
M1219.999390,2390.199219 
	C1191.106323,2390.199219 1163.212891,2390.199219 1134.729614,2390.199219 
	C1134.729614,2323.997070 1134.729614,2258.631592 1134.729614,2192.697266 
	C1146.248535,2192.697266 1157.422241,2192.697266 1169.950439,2192.697266 
	C1170.420044,2203.386719 1170.098877,2214.231201 1170.157104,2225.052979 
	C1170.216309,2236.037109 1170.170166,2247.021973 1170.170166,2258.006348 
	C1170.170166,2269.323730 1170.170166,2280.641357 1170.170166,2291.958740 
	C1170.170166,2302.943115 1170.170166,2313.927734 1170.170166,2324.912109 
	C1170.170166,2335.840576 1170.170166,2346.769287 1170.170166,2358.865723 
	C1200.112793,2358.865723 1229.207275,2358.865723 1258.988525,2358.865723 
	C1258.988525,2369.748535 1258.988525,2379.458252 1258.988525,2390.198975 
	C1246.114746,2390.198975 1233.557007,2390.198975 1219.999390,2390.199219 
z"/>
<path fill="#FCBD09" opacity="1.000000" stroke="none" 
	d="
M1970.134277,2224.005371 
	C1970.134277,2279.543457 1970.134277,2334.083496 1970.134277,2389.322754 
	C1958.135376,2389.322754 1946.715210,2389.322754 1934.718750,2389.322754 
	C1934.718750,2323.751221 1934.718750,2258.396240 1934.718750,2192.510498 
	C1946.308716,2192.510498 1957.482300,2192.510498 1970.134155,2192.510498 
	C1970.134155,2202.669678 1970.134155,2212.838135 1970.134277,2224.005371 
z"/>
<path fill="#EC4639" opacity="1.000000" stroke="none" 
	d="
M2830.195801,2373.606201 
	C2826.957764,2388.412354 2816.664062,2395.878906 2803.516846,2393.759033 
	C2791.880859,2391.882812 2783.928467,2382.138428 2784.539795,2370.505127 
	C2785.151123,2358.867920 2793.813965,2350.048584 2805.617920,2349.046143 
	C2817.235107,2348.059570 2827.641602,2355.621094 2829.876221,2366.798828 
	C2830.263428,2368.736084 2830.136230,2370.776123 2830.195801,2373.606201 
z"/>
<path fill="#FFFDFD" opacity="1.000000" stroke="none" 
	d="
M2726.163086,2335.978516 
	C2716.767578,2348.651367 2704.598145,2355.458984 2690.027100,2358.561035 
	C2675.187744,2361.720215 2660.332520,2360.800781 2644.800293,2360.080322 
	C2644.800293,2313.920898 2644.800293,2268.475098 2644.800293,2222.197266 
	C2665.284424,2220.717773 2685.418457,2219.495361 2704.746582,2227.862061 
	C2719.394775,2234.203125 2729.360107,2245.251221 2733.804199,2260.310791 
	C2741.420898,2286.119385 2741.504639,2311.564209 2726.163086,2335.978516 
z"/>
<path fill="#FBFDFC" opacity="1.000000" stroke="none" 
	d="
M814.156311,2246.036621 
	C814.156372,2237.801025 814.156372,2230.557129 814.156372,2222.197021 
	C831.106689,2221.498291 847.238403,2219.847412 863.028870,2224.989014 
	C876.952759,2229.522705 883.859680,2239.713135 883.601929,2254.418701 
	C883.340576,2269.323975 876.390930,2278.452148 861.900085,2282.923096 
	C851.686584,2286.074463 831.575684,2287.176758 814.156250,2285.322510 
	C814.156250,2272.682373 814.156250,2259.855225 814.156311,2246.036621 
z"/>
<path fill="#FEFDFA" opacity="1.000000" stroke="none" 
	d="
M1693.793335,2310.886719 
	C1692.723511,2312.474121 1691.515381,2313.872070 1690.297607,2313.880371 
	C1670.686890,2314.017090 1651.074951,2313.977051 1630.100342,2313.977051 
	C1639.794434,2285.793457 1650.266113,2258.884521 1661.525757,2232.279541 
	C1662.324707,2232.262451 1663.123779,2232.245361 1663.922729,2232.228271 
	C1673.832031,2258.168945 1683.741333,2284.109863 1693.793335,2310.886719 
z"/>
</svg>