<svg version="1.1" id="Layer_1" xmlns="http://www.w3.org/2000/svg" xmlns:xlink="http://www.w3.org/1999/xlink" x="0px" y="0px"
	 width="100%" viewBox="0 0 1932 1876" enable-background="new 0 0 1932 1876" xml:space="preserve">
<path fill="#FFFFFF" opacity="1.000000" stroke="none" 
	d="
M1038.000000,1877.000000 
	C692.000000,1877.000000 346.500000,1877.000000 1.000000,1877.000000 
	C1.000000,1251.666626 1.000000,626.333313 1.000000,1.000000 
	C645.000000,1.000000 1289.000000,1.000000 1933.000000,1.000000 
	C1933.000000,626.333313 1933.000000,1251.666626 1933.000000,1877.000000 
	C1634.833374,1877.000000 1336.666626,1877.000000 1038.000000,1877.000000 
M848.166687,1754.500000 
	C848.166626,1389.342407 848.108887,1024.184814 848.351257,659.027344 
	C848.362366,642.213074 850.014587,625.227173 852.748962,608.625366 
	C857.652466,578.854614 867.319336,550.507996 881.342407,523.633911 
	C896.855713,493.903961 919.062561,470.032776 944.668457,448.942078 
	C964.440125,432.656647 985.912231,418.939392 1009.736938,409.667175 
	C1027.163330,402.885132 1045.177246,397.179382 1063.385376,392.964081 
	C1080.734009,388.947754 1098.630493,387.121796 1116.367188,385.015350 
	C1130.014404,383.394592 1143.785889,381.956909 1157.504517,381.935364 
	C1297.834229,381.714966 1438.164551,381.800995 1578.494629,381.801453 
	C1581.095337,381.801483 1583.695923,381.801483 1586.459351,381.801483 
	C1586.459351,320.199829 1586.459351,259.295593 1586.459351,198.293823 
	C1148.432373,198.293823 710.715393,198.293823 273.053375,198.293823 
	C273.053375,263.386200 273.053375,328.118103 273.053375,392.949768 
	C428.151917,392.949768 582.855896,392.949768 737.807617,392.949768 
	C737.629089,393.959381 737.666870,394.670746 737.383362,395.214600 
	C728.621704,412.020660 719.728821,428.759552 711.132446,445.649414 
	C709.589233,448.681458 707.593384,449.003723 704.752258,449.012482 
	C620.794128,449.271332 536.836304,449.657623 452.878052,449.856354 
	C394.879730,449.993622 336.880768,449.882904 278.882111,449.882996 
	C276.939240,449.882996 274.996368,449.882996 273.028992,449.882996 
	C273.028992,520.233398 273.028992,589.952576 273.028992,659.663086 
	C398.710144,659.663086 524.018188,659.663086 650.304565,659.663086 
	C650.304565,1057.635986 650.304565,1455.148193 650.304565,1852.634766 
	C716.721008,1852.634766 782.157776,1852.634766 848.166870,1852.634766 
	C848.166870,1820.062988 848.166870,1787.781494 848.166687,1754.500000 
M1586.774536,523.500000 
	C1586.774414,504.667999 1586.687622,485.835266 1586.849731,467.004639 
	C1586.880981,463.376617 1586.001587,462.116852 1582.147339,462.116119 
	C1561.331909,462.112122 1540.516846,461.750885 1519.700928,461.636597 
	C1468.894531,461.357697 1418.087646,460.934143 1367.281128,460.959686 
	C1296.470093,460.995300 1225.659302,461.359436 1154.848511,461.640900 
	C1127.700928,461.748810 1100.552002,461.897461 1073.407349,462.283386 
	C1065.311768,462.398499 1057.147583,462.849518 1049.153564,464.061615 
	C1017.841919,468.809265 992.267578,483.639374 973.097046,508.961884 
	C948.663147,541.236755 937.153748,578.278320 936.943359,618.208435 
	C936.327087,735.201172 936.722473,852.199158 936.721558,969.195129 
	C936.721558,970.964233 936.721558,972.733276 936.721558,974.541016 
	C1153.728027,974.541016 1370.092285,974.541016 1586.578613,974.541016 
	C1586.660645,973.337097 1586.764771,972.520813 1586.764893,971.704468 
	C1586.773315,917.372986 1586.815186,863.041443 1586.661255,808.710388 
	C1586.652710,805.724915 1585.489868,802.479736 1584.026978,799.815125 
	C1580.811646,793.959045 1575.063354,791.039368 1569.045288,788.963623 
	C1559.881470,785.802856 1550.473022,785.112305 1540.705688,785.524536 
	C1528.282715,786.048828 1515.799438,784.901550 1503.342041,784.895264 
	C1380.512939,784.832886 1257.683838,784.857788 1134.854736,784.857910 
	C1132.895996,784.857910 1130.937378,784.857849 1128.528320,784.857849 
	C1127.904175,775.829407 1126.923096,767.273071 1126.800659,758.704407 
	C1126.538696,740.375488 1126.520508,722.037231 1126.791260,703.708496 
	C1126.971924,691.477417 1132.372070,681.710083 1142.404419,674.587036 
	C1157.239990,664.053711 1174.387573,660.845520 1191.920776,660.208679 
	C1216.699097,659.308655 1241.515869,659.443970 1266.316895,659.193420 
	C1289.963989,658.954529 1313.611938,658.795898 1337.259399,658.588135 
	C1367.233154,658.324829 1397.207397,658.094910 1427.180420,657.758850 
	C1446.309448,657.544312 1465.435791,657.088379 1484.564819,656.874207 
	C1516.686279,656.514587 1548.808960,656.260620 1580.931152,655.965637 
	C1582.707520,655.949280 1584.484131,655.963501 1586.774292,655.963501 
	C1586.774292,611.743103 1586.774292,568.121521 1586.774536,523.500000 
M1124.938721,1583.500000 
	C1125.233521,1531.876465 1125.605469,1480.253052 1125.796875,1428.629150 
	C1125.932129,1392.131592 1125.785889,1355.632935 1125.862427,1319.135132 
	C1125.874146,1313.509399 1126.201538,1307.864746 1126.739624,1302.263184 
	C1128.527954,1283.643188 1142.518921,1270.989746 1161.122681,1270.989502 
	C1300.782104,1270.987793 1440.441528,1270.988403 1580.100952,1270.988281 
	C1582.186523,1270.988281 1584.272095,1270.988281 1586.403076,1270.988281 
	C1586.557861,1269.605957 1586.693237,1268.960327 1586.693359,1268.314697 
	C1586.705078,1210.317749 1586.790405,1152.320435 1586.594238,1094.324097 
	C1586.571655,1087.646973 1584.089722,1081.392212 1579.109375,1076.421387 
	C1571.604248,1068.930664 1562.225586,1066.940063 1552.126709,1066.939941 
	C1348.803955,1066.937012 1145.481079,1066.937500 942.158264,1066.937378 
	C940.408325,1066.937378 938.658386,1066.937378 937.023926,1066.937378 
	C937.023926,1329.300659 937.023926,1590.884644 937.023926,1852.920288 
	C939.126526,1852.920288 940.923035,1852.929810 942.719360,1852.918823 
	C992.510376,1852.613037 1042.301758,1852.350464 1092.092163,1851.959961 
	C1102.216064,1851.880615 1112.336426,1851.325562 1122.457275,1850.955811 
	C1122.900269,1850.939575 1123.330688,1850.581421 1124.938599,1849.848267 
	C1124.938599,1761.699585 1124.938599,1673.099854 1124.938721,1583.500000 
z"/>
<path fill="#33A953" opacity="1.000000" stroke="none" 
	d="
M848.166748,1755.000000 
	C848.166870,1787.781494 848.166870,1820.062988 848.166870,1852.634766 
	C782.157776,1852.634766 716.721008,1852.634766 650.304565,1852.634766 
	C650.304565,1455.148193 650.304565,1057.635986 650.304565,659.663086 
	C524.018188,659.663086 398.710144,659.663086 273.028992,659.663086 
	C273.028992,589.952576 273.028992,520.233398 273.028992,449.882996 
	C274.996368,449.882996 276.939240,449.882996 278.882111,449.882996 
	C336.880768,449.882904 394.879730,449.993622 452.878052,449.856354 
	C536.836304,449.657623 620.794128,449.271332 704.752258,449.012482 
	C707.593384,449.003723 709.589233,448.681458 711.132446,445.649414 
	C719.728821,428.759552 728.621704,412.020660 737.383362,395.214600 
	C737.666870,394.670746 737.629089,393.959381 737.807617,392.949768 
	C582.855896,392.949768 428.151917,392.949768 273.053375,392.949768 
	C273.053375,328.118103 273.053375,263.386200 273.053375,198.293823 
	C710.715393,198.293823 1148.432373,198.293823 1586.459351,198.293823 
	C1586.459351,259.295593 1586.459351,320.199829 1586.459351,381.801483 
	C1583.695923,381.801483 1581.095337,381.801483 1578.494629,381.801453 
	C1438.164551,381.800995 1297.834229,381.714966 1157.504517,381.935364 
	C1143.785889,381.956909 1130.014404,383.394592 1116.367188,385.015350 
	C1098.630493,387.121796 1080.734009,388.947754 1063.385376,392.964081 
	C1045.177246,397.179382 1027.163330,402.885132 1009.736938,409.667175 
	C985.912231,418.939392 964.440125,432.656647 944.668457,448.942078 
	C919.062561,470.032776 896.855713,493.903961 881.342407,523.633911 
	C867.319336,550.507996 857.652466,578.854614 852.748962,608.625366 
	C850.014587,625.227173 848.362366,642.213074 848.351257,659.027344 
	C848.108887,1024.184814 848.166626,1389.342407 848.166748,1755.000000 
z"/>
<path fill="#FCBC05" opacity="1.000000" stroke="none" 
	d="
M1586.774414,524.000000 
	C1586.774292,568.121521 1586.774292,611.743103 1586.774292,655.963501 
	C1584.484131,655.963501 1582.707520,655.949280 1580.931152,655.965637 
	C1548.808960,656.260620 1516.686279,656.514587 1484.564819,656.874207 
	C1465.435791,657.088379 1446.309448,657.544312 1427.180420,657.758850 
	C1397.207397,658.094910 1367.233154,658.324829 1337.259399,658.588135 
	C1313.611938,658.795898 1289.963989,658.954529 1266.316895,659.193420 
	C1241.515869,659.443970 1216.699097,659.308655 1191.920776,660.208679 
	C1174.387573,660.845520 1157.239990,664.053711 1142.404419,674.587036 
	C1132.372070,681.710083 1126.971924,691.477417 1126.791260,703.708496 
	C1126.520508,722.037231 1126.538696,740.375488 1126.800659,758.704407 
	C1126.923096,767.273071 1127.904175,775.829407 1128.528320,784.857849 
	C1130.937378,784.857849 1132.895996,784.857910 1134.854736,784.857910 
	C1257.683838,784.857788 1380.512939,784.832886 1503.342041,784.895264 
	C1515.799438,784.901550 1528.282715,786.048828 1540.705688,785.524536 
	C1550.473022,785.112305 1559.881470,785.802856 1569.045288,788.963623 
	C1575.063354,791.039368 1580.811646,793.959045 1584.026978,799.815125 
	C1585.489868,802.479736 1586.652710,805.724915 1586.661255,808.710388 
	C1586.815186,863.041443 1586.773315,917.372986 1586.764893,971.704468 
	C1586.764771,972.520813 1586.660645,973.337097 1586.578613,974.541016 
	C1370.092285,974.541016 1153.728027,974.541016 936.721558,974.541016 
	C936.721558,972.733276 936.721558,970.964233 936.721558,969.195129 
	C936.722473,852.199158 936.327087,735.201172 936.943359,618.208435 
	C937.153748,578.278320 948.663147,541.236755 973.097046,508.961884 
	C992.267578,483.639374 1017.841919,468.809265 1049.153564,464.061615 
	C1057.147583,462.849518 1065.311768,462.398499 1073.407349,462.283386 
	C1100.552002,461.897461 1127.700928,461.748810 1154.848511,461.640900 
	C1225.659302,461.359436 1296.470093,460.995300 1367.281128,460.959686 
	C1418.087646,460.934143 1468.894531,461.357697 1519.700928,461.636597 
	C1540.516846,461.750885 1561.331909,462.112122 1582.147339,462.116119 
	C1586.001587,462.116852 1586.880981,463.376617 1586.849731,467.004639 
	C1586.687622,485.835266 1586.774414,504.667999 1586.774414,524.000000 
z"/>
<path fill="#EC4235" opacity="1.000000" stroke="none" 
	d="
M1124.938721,1584.000000 
	C1124.938599,1673.099854 1124.938599,1761.699585 1124.938599,1849.848267 
	C1123.330688,1850.581421 1122.900269,1850.939575 1122.457275,1850.955811 
	C1112.336426,1851.325562 1102.216064,1851.880615 1092.092163,1851.959961 
	C1042.301758,1852.350464 992.510376,1852.613037 942.719360,1852.918823 
	C940.923035,1852.929810 939.126526,1852.920288 937.023926,1852.920288 
	C937.023926,1590.884644 937.023926,1329.300659 937.023926,1066.937378 
	C938.658386,1066.937378 940.408325,1066.937378 942.158264,1066.937378 
	C1145.481079,1066.937500 1348.803955,1066.937012 1552.126709,1066.939941 
	C1562.225586,1066.940063 1571.604248,1068.930664 1579.109375,1076.421387 
	C1584.089722,1081.392212 1586.571655,1087.646973 1586.594238,1094.324097 
	C1586.790405,1152.320435 1586.705078,1210.317749 1586.693359,1268.314697 
	C1586.693237,1268.960327 1586.557861,1269.605957 1586.403076,1270.988281 
	C1584.272095,1270.988281 1582.186523,1270.988281 1580.100952,1270.988281 
	C1440.441528,1270.988403 1300.782104,1270.987793 1161.122681,1270.989502 
	C1142.518921,1270.989746 1128.527954,1283.643188 1126.739624,1302.263184 
	C1126.201538,1307.864746 1125.874146,1313.509399 1125.862427,1319.135132 
	C1125.785889,1355.632935 1125.932129,1392.131592 1125.796875,1428.629150 
	C1125.605469,1480.253052 1125.233521,1531.876465 1124.938721,1584.000000 
z"/>
</svg>